<svg xmlns="http://www.w3.org/2000/svg" version="1.1" xmlns:xlink="http://www.w3.org/1999/xlink" xmlns:svgjs="http://svgjs.dev/svgjs" viewBox="0 0 800 800"><defs><linearGradient x1="50%" y1="0%" x2="50%" y2="100%" id="ccchaos-grad"><stop stop-color="hsl(206, 75%, 49%)" stop-opacity="1" offset="0%"></stop><stop stop-color="hsl(331, 90%, 56%)" stop-opacity="1" offset="100%"></stop></linearGradient></defs><g stroke-width="1.5" stroke="url(#ccchaos-grad)" fill="none" stroke-linecap="round"><path d="M414.89 -132.45C424.41 -131.27 433.96 -129.94 443.52 -128.52 453.08 -127.27 462.66 -125.99 472.25 -124.72 481.85 -123.7 491.46 -122.71 501.08 -121.73 510.7 -120.99 520.31 -120.23 529.91 -119.43 539.5 -118.76 549.07 -117.96 558.6 -117 568.11 -116.03 577.55 -114.79 586.92 -113.25 596.23 -111.57 605.44 -109.51 614.52 -107.05 623.52 -104.36 632.35 -101.23 640.99 -97.67 649.5 -93.86 657.78 -89.64 665.78 -85.03 673.62 -80.23 681.16 -75.11 688.34 -69.7 695.32 -64.21 701.92 -58.53 708.11 -52.7 714.05 -46.92 719.56 -41.06 724.62 -35.19 729.42 -29.47 733.77 -23.78 737.65 -18.14 741.31 -12.73 744.53 -7.4 747.33 -2.15 751.12 5.33 757.02 19.76 759.43 26.83 761.97 33.74 767.7 48.01 771.36 55.53 774.42 60.64 777.9 65.99 781.85 71.58 786.5 77.27 791.72 83.23 797.55 89.47 804.14 95.85 811.35 102.52 819.18 109.45 827.7 116.55 836.76 123.91 846.29 131.52 856.29 139.28 866.58 147.27 877.03 155.47 887.61 163.8 898.08 172.31 908.28 180.99 918.17 189.77 927.49 198.69 936.06 207.72 943.88 216.83 950.69 226.03 956.33 235.31 960.9 244.64 964.14 254.03 965.98 263.45 966.62 272.91 965.85 282.39 963.69 291.88 960.49 301.39 956.09 310.91 950.61 320.41 944.5 329.93 937.67 339.43 930.32 348.89 922.95 358.36 915.5 367.8 908.22 377.19 901.58 386.58 895.52 395.92 890.25 405.19 886.17 414.45 883.19 423.54 881.36 432.42 880.93 441.31 881.65 449.99 883.46 458.46 886.5 466.92 890.41 475.16 895.04 483.17 900.47 491.17 906.24 498.93 912.16 506.46 918.3 513.97 924.18 521.24 929.6 528.28 934.67 535.3 938.94 542.09 942.27 548.66 944.8 555.24 946.17 561.62 946.33 567.81 945.47 574.05 943.33 580.15 939.95 586.13 935.54 592.22 929.97 598.25 923.33 604.26 915.87 610.46 907.53 616.71 898.45 623.07 888.85 629.71 878.76 636.52 868.31 643.57 857.69 650.99 846.96 658.7 836.22 666.75 825.65 675.22 815.25 684.07 805.13 693.3 795.41 702.94 786.08 712.95 777.17 723.3 768.8 733.96 760.89 744.87 753.45 755.95 746.58 767.13 740.15 778.31 734.13 789.37 728.62 800.23 723.46 810.74 718.58 820.75 714.12 830.22 709.85 838.94 705.73 846.79 699.99 856.76 688.77 869.61 683.01 872.32 677.17 872.56 664.3 867.58 657.15 863.36 652.21 860.54 646.96 857.8 641.39 855.38 635.71 853.79 629.72 852.98 623.42 853.14 617 854.66 610.29 857.42 603.28 861.51 596.18 867.07 588.8 873.9 581.17 881.87 573.45 890.93 565.5 900.72 557.33 910.95 549.1 921.43 540.67 931.68 532.06 941.34 523.4 950.2 514.59 957.8 505.62 963.83 496.62 968.23 487.49 970.66 478.24 971.01 468.98 969.51 459.6 965.99 450.12 960.63 440.64 953.94 431.06 945.97 421.39 937.1 411.72 928.03 402.08 919.02 392.47 910.49 382.87 902.98 373.3 896.63 363.78 891.68 354.26 888.49 344.77 886.93 335.33 886.99 325.9 888.79 316.5 891.95 307.16 896.21 297.81 901.56 288.52 907.4 279.27 913.39 270.03 919.47 260.84 925.01 251.72 929.71 242.6 933.56 233.54 936.07 224.56 937.06 215.6 936.67 206.71 934.59 197.91 930.85 189.14 925.69 180.46 919.04 171.9 911.05 163.37 902.06 154.97 892.13 146.7 881.52 138.48 870.55 130.41 859.35 122.49 848.17 114.65 837.27 106.97 826.78 99.47 816.83 92.05 807.65 84.81 799.22 77.77 791.62 70.81 784.98 64.04 779.17 57.46 774.17 50.96 770.06 44.66 766.62 38.54 763.73 32.47 761.5 26.58 759.61 20.87 757.94 12.41 755.92 -3.78 751.39 -11.58 748.31 -16.78 745.91 -21.88 742.98 -26.88 739.5 -31.95 735.68 -36.92 731.25 -41.81 726.22 -46.76 720.8 -51.61 714.8 -56.36 708.25 -61.15 701.33 -65.82 693.91 -70.34 686.06 -74.88 677.9 -79.23 669.37 -83.38 660.53 -87.5 651.47 -91.38 642.16 -95 632.66 -98.54 623.02 -101.79 613.25 -104.73 603.38 -107.56 593.44 -110.08 583.46 -112.27 573.46 -114.36 563.43 -116.13 553.42 -117.61 543.44 -119.02 533.46 -120.16 523.53 -121.06 513.67 -121.96 503.82 -122.67 494.04 -123.21 484.34 -123.83 474.65 -124.33 465.04 -124.74 455.52 -125.29 446 -125.77 436.57 -126.21 427.21 -126.81 417.87 -127.37 408.6 -127.86 399.41 -128.49 390.21 -129.02 381.2 -129.42 372.37 -129.89 363.54 -130.18 354.87 -130.25 346.37 -130.31 337.87 -130.09 329.52 -129.57 321.33 -128.97 313.13 -128.03 305.07 -126.74 297.16 -125.32 289.22 -123.54 281.42 -121.41 273.74 -119.15 266.02 -116.56 258.41 -113.64 250.91 -110.64 243.35 -107.35 235.87 -103.81 228.47 -100.24 220.98 -96.45 213.55 -92.48 206.16 -88.53 198.65 -84.43 191.17 -80.2 183.7 -76.04 176.09 -71.77 168.47 -67.4 160.83 -63.12 153.05 -58.74 145.23 -54.27 137.38 -49.87 129.38 -45.37 121.36 -40.76 113.3 -36.19 105.12 -31.49 96.94 -26.65 88.76 -21.81 80.51 -16.81 72.3 -11.64 64.16 -6.43 56.02 -1.02 48.01 4.57 40.14 10.23 32.36 16.11 24.79 22.19 17.47 28.35 10.32 34.72 3.46 41.29 -3.05 47.94 -9.35 54.79 -15.28 61.83 -20.83 68.92 -26.14 76.19 -31.07 83.63 -35.61 91.1 -39.94 98.71 -43.93 106.47 -47.58 114.23 -51.11 122.12 -54.39 130.11 -57.43 138.09 -60.47 146.16 -63.36 154.32 -66.15 162.45 -69.06 170.66 -71.94 178.93 -74.82 187.17 -77.91 195.47 -81.05 203.83 -84.24 212.14 -87.68 220.52 -91.17 228.95 -94.7 237.34 -98.43 245.79 -102.15 254.3 -105.82 262.77 -109.58 271.31 -113.2 279.92 -116.63 288.49 -120.01 297.15 -123.11 305.88 -125.87 314.58 -128.46 323.38 -130.63 332.26 -132.37 341.13 -133.86 350.09 -134.9 359.16 -135.46 368.22 -135.8 377.39 -135.71 386.67 -135.21 395.95 -134.59 405.35 -133.66 414.88 -132.45" stroke-dasharray="7 0" transform="rotate(0, 400, 400)" opacity="0.28"></path><path d="M420.01 -111.88C429.28 -110.6 438.53 -109.19 447.77 -107.69 457.01 -106.36 466.24 -105.03 475.44 -103.71 484.64 -102.65 493.82 -101.64 502.96 -100.66 512.09 -99.93 521.17 -99.21 530.2 -98.47 539.2 -97.89 548.14 -97.22 556.98 -96.41 565.78 -95.62 574.48 -94.6 583.04 -93.31 591.54 -91.91 599.88 -90.16 608.05 -88.03 616.12 -85.68 623.98 -82.91 631.61 -79.71 639.11 -76.26 646.34 -72.39 653.28 -68.12 660.07 -63.63 666.53 -58.78 672.64 -53.62 678.58 -48.33 684.15 -42.79 689.34 -37.06 694.34 -31.31 698.94 -25.45 703.16 -19.51 707.2 -13.68 710.86 -7.84 714.15 -2.02 717.32 3.6 720.16 9.17 722.7 14.68 726.33 22.54 732.77 37.59 735.86 44.84 739.36 51.81 747.65 65.75 752.81 72.87 756.91 77.62 761.45 82.52 766.46 87.61 772.11 92.72 778.28 98.05 785 103.6 792.35 109.23 800.23 115.11 808.59 121.23 817.49 127.46 826.77 133.94 836.36 140.66 846.24 147.5 856.25 154.58 866.26 161.88 876.25 169.3 885.99 176.92 895.34 184.73 904.28 192.65 912.58 200.73 920.09 208.95 926.83 217.27 932.57 225.7 937.18 234.24 940.79 242.86 943.15 251.55 944.22 260.31 944.23 269.12 942.98 277.99 940.49 286.88 937.1 295.81 932.67 304.76 927.3 313.7 921.43 322.68 914.94 331.64 908.02 340.59 901.13 349.54 894.19 358.47 887.42 367.35 881.25 376.23 875.61 385.06 870.67 393.83 866.81 402.6 863.93 411.19 862.08 419.6 861.48 428 861.92 436.22 863.35 444.25 865.9 452.27 869.27 460.09 873.31 467.72 878.12 475.35 883.31 482.78 888.68 490.03 894.33 497.28 899.83 504.35 905 511.25 909.94 518.17 914.24 524.94 917.76 531.57 920.65 538.26 922.55 544.84 923.4 551.34 923.37 557.93 922.19 564.49 919.88 571.04 916.64 577.75 912.3 584.5 906.93 591.34 900.75 598.4 893.67 605.6 885.81 612.97 877.37 620.63 868.33 628.51 858.83 636.65 849.04 645.12 838.98 653.87 828.77 662.91 818.56 672.27 808.37 681.91 798.3 691.83 788.46 701.99 778.87 712.36 769.56 722.88 760.65 733.5 752.11 744.15 743.94 754.74 736.24 765.21 728.92 775.44 721.99 785.33 715.52 794.82 709.4 803.76 703.59 812.05 698.18 819.67 693.03 826.45 688.07 832.3 681.19 839.32 668.21 846.87 661.87 847.51 655.66 846.33 642.67 840.42 635.75 836.71 628.59 833.68 612.97 831.37 604.46 833.14 598.64 835.95 592.55 839.92 586.19 845.06 579.76 851.49 573.07 858.95 566.13 867.32 559.13 876.52 551.88 886.19 544.41 896.08 536.89 906 529.15 915.53 521.21 924.36 513.24 932.33 505.07 939.02 496.73 944.19 488.37 947.84 479.84 949.64 471.16 949.54 462.46 947.76 453.63 944.18 444.66 938.93 435.69 932.5 426.59 924.93 417.38 916.53 408.17 907.95 398.95 899.4 389.75 891.25 380.54 884 371.35 877.74 362.18 872.72 353.02 869.25 343.88 867.25 334.76 866.71 325.66 867.79 316.58 870.15 307.54 873.6 298.52 878.15 289.53 883.29 280.59 888.72 271.67 894.41 262.8 899.8 254 904.59 245.21 908.81 236.49 911.95 227.85 913.84 219.24 914.58 210.71 913.84 202.27 911.58 193.88 908.02 185.6 903 177.43 896.65 169.31 889.22 161.32 880.74 153.46 871.39 145.68 861.46 138.04 851.06 130.55 840.4 123.15 829.72 115.9 819.15 108.83 808.84 101.84 799 95.03 789.69 88.4 780.98 81.85 773.04 75.47 765.8 69.28 759.29 63.16 753.6 57.2 748.59 51.43 744.19 45.69 740.52 40.12 737.32 34.7 734.5 26.66 731.11 11.23 725.27 3.79 722.27 -3.59 719.05 -17.99 710.59 -24.99 705.12 -29.69 701.05 -34.29 696.48 -38.77 691.41 -43.29 686.06 -47.69 680.22 -51.93 673.93 -56.19 667.37 -60.28 660.39 -64.17 653.04 -68.03 645.46 -71.68 637.56 -75.09 629.38 -78.43 621.03 -81.51 612.45 -84.32 603.69 -87.05 594.81 -89.5 585.8 -91.66 576.68 -93.74 567.49 -95.55 558.23 -97.09 548.93 -98.58 539.59 -99.84 530.24 -100.87 520.89 -101.9 511.53 -102.74 502.19 -103.42 492.88 -104.16 483.57 -104.78 474.3 -105.28 465.08 -105.88 455.87 -106.41 446.71 -106.84 437.61 -107.41 428.51 -107.89 419.47 -108.28 410.49 -108.78 401.51 -109.15 392.7 -109.38 384.04 -109.67 375.38 -109.77 366.87 -109.67 358.51 -109.55 350.13 -109.19 341.89 -108.56 333.79 -107.86 325.66 -106.87 317.66 -105.57 309.77 -104.17 301.84 -102.45 294.01 -100.43 286.28 -98.31 278.5 -95.88 270.79 -93.18 263.15 -90.4 255.44 -87.37 247.78 -84.1 240.16 -80.8 232.45 -77.3 224.76 -73.61 217.09 -69.95 209.31 -66.12 201.53 -62.17 193.73 -58.26 185.83 -54.24 177.9 -50.11 169.96 -46.05 161.9 -41.88 153.83 -37.62 145.74 -33.41 137.55 -29.09 129.37 -24.67 121.2 -20.28 112.98 -15.76 104.79 -11.1 96.67 -6.45 88.55 -1.65 80.54 3.31 72.65 8.31 64.85 13.49 57.22 18.85 49.8 24.27 42.53 29.88 35.53 35.69 28.81 41.57 22.3 47.66 16.11 53.94 10.28 60.3 4.67 66.85 -0.56 73.58 -5.43 80.39 -10.08 87.37 -14.38 94.52 -18.34 101.71 -22.14 109.07 -25.64 116.56 -28.87 124.09 -32.04 131.74 -35.01 139.51 -37.82 147.29 -40.69 155.18 -43.47 163.16 -46.19 171.14 -49.09 179.2 -51.99 187.33 -54.93 195.45 -58.11 203.64 -61.36 211.89 -64.67 220.11 -68.23 228.4 -71.83 236.75 -75.47 245.06 -79.29 253.44 -83.09 261.87 -86.81 270.27 -90.6 278.74 -94.22 287.27 -97.64 295.76 -100.98 304.33 -104.01 312.96 -106.7 321.57 -109.18 330.26 -111.25 339.02 -112.88 347.77 -114.24 356.59 -115.15 365.51 -115.59 374.41 -115.79 383.4 -115.58 392.48 -114.97 401.56 -114.23 410.73 -113.19 420 -111.88" stroke-dasharray="0 10" transform="rotate(10.4, 400, 400)" opacity="0.31"></path><path d="M422.38 -91.31C431.32 -89.95 440.22 -88.46 449.08 -86.89 457.93 -85.49 466.73 -84.1 475.46 -82.73 484.2 -81.63 492.86 -80.58 501.45 -79.58 510.02 -78.85 518.51 -78.14 526.89 -77.44 535.25 -76.92 543.49 -76.34 551.59 -75.65 559.65 -75.02 567.56 -74.2 575.3 -73.14 582.98 -71.99 590.46 -70.53 597.73 -68.73 604.91 -66.73 611.86 -64.33 618.55 -61.52 625.13 -58.46 631.43 -54.99 637.44 -51.11 643.31 -46.98 648.88 -42.49 654.13 -37.64 659.24 -32.63 664.02 -27.33 668.47 -21.79 672.79 -16.18 676.78 -10.4 680.46 -4.49 684.05 1.36 687.34 7.28 690.37 13.22 693.37 19.03 696.14 24.81 698.73 30.54 701.38 36.07 703.92 41.54 706.39 46.93 710.37 54.66 719.1 69.5 724.14 76.69 728.02 81.33 732.2 85.99 736.74 90.69 741.8 95.29 747.28 99.99 753.2 104.79 759.68 109.55 766.61 114.46 773.99 119.53 781.89 124.62 790.19 129.89 798.83 135.36 807.86 140.89 817.13 146.63 826.55 152.58 836.11 158.61 845.66 164.85 855.06 171.31 864.32 177.85 873.23 184.6 881.65 191.53 889.61 198.56 896.87 205.77 903.32 213.13 909.02 220.58 913.74 228.18 917.39 235.9 920.11 243.69 921.69 251.6 922.1 259.6 921.57 267.65 919.91 275.78 917.17 283.97 913.67 292.2 909.26 300.48 904.05 308.79 898.43 317.12 892.3 325.48 885.81 333.84 879.39 342.21 872.95 350.58 866.67 358.93 860.95 367.29 855.71 375.62 851.09 383.91 847.45 392.21 844.67 400.37 842.8 408.38 842.07 416.39 842.26 424.26 843.33 431.98 845.44 439.7 848.29 447.28 851.78 454.72 856 462.17 860.6 469.49 865.43 476.68 870.58 483.9 875.66 491.02 880.51 498.04 885.25 505.1 889.49 512.1 893.1 519.05 896.23 526.08 898.52 533.09 899.91 540.11 900.56 547.25 900.21 554.44 898.84 561.69 896.65 569.11 893.44 576.65 889.26 584.32 884.3 592.2 878.47 600.26 871.83 608.51 864.59 616.99 856.7 625.69 848.26 634.6 839.44 643.75 830.24 653.11 820.77 662.67 811.17 672.41 801.45 682.3 791.7 692.31 782.04 702.39 772.48 712.5 763.08 722.57 753.94 732.55 745.03 742.36 736.41 751.9 728.14 761.16 720.18 770 712.54 778.32 705.29 786.14 698.35 793.3 691.71 799.7 685.44 805.43 679.43 810.31 673.66 814.29 665.57 818.69 650.51 822.04 643.35 821.28 636.46 819.37 622.66 813.79 615.58 811.08 608.43 809.52 593.29 810.9 585.22 814.58 579.74 818.55 574.05 823.55 568.13 829.55 562.17 836.63 555.98 844.52 549.57 853.08 543.12 862.22 536.44 871.63 529.55 881.04 522.61 890.32 515.47 899.09 508.13 907.06 500.75 914.13 493.18 919.95 485.42 924.31 477.65 927.24 469.69 928.48 461.58 927.98 453.45 925.98 445.16 922.35 436.72 917.23 428.28 911.08 419.7 903.89 410.98 895.96 402.27 887.87 393.53 879.77 384.78 872 376.04 865.01 367.29 858.88 358.55 853.81 349.82 850.13 341.09 847.74 332.38 846.67 323.69 847.09 315.02 848.7 306.38 851.35 297.76 855.11 289.17 859.51 280.64 864.32 272.12 869.52 263.66 874.62 255.27 879.34 246.9 883.72 238.61 887.28 230.39 889.84 222.22 891.48 214.13 891.86 206.15 890.91 198.21 888.8 190.39 885.34 182.68 880.58 175.04 874.75 167.52 867.81 160.14 859.9 152.83 851.27 145.67 841.98 138.66 832.19 131.73 822.16 124.96 811.96 118.35 801.76 111.81 791.76 105.45 782.03 99.25 772.67 93.12 763.84 87.16 755.53 81.36 747.81 75.62 740.77 70.03 734.34 64.61 728.49 59.21 723.34 53.95 718.72 48.84 714.55 41.23 709.33 26.6 700.82 19.54 697.08 12.51 693.58 -1.16 685.82 -7.8 681.26 -12.25 678 -16.6 674.37 -20.83 670.35 -25.11 666.15 -29.25 661.54 -33.26 656.53 -37.27 651.3 -41.13 645.69 -44.8 639.7 -48.45 633.51 -51.91 626.97 -55.14 620.12 -58.33 613.1 -61.29 605.8 -64 598.25 -66.66 590.57 -69.06 582.68 -71.21 574.61 -73.31 566.46 -75.15 558.16 -76.76 549.74 -78.33 541.26 -79.69 532.7 -80.83 524.06 -81.98 515.4 -82.94 506.69 -83.74 497.95 -84.58 489.2 -85.28 480.43 -85.85 471.66 -86.5 462.88 -87.04 454.11 -87.47 445.35 -87.99 436.59 -88.4 427.85 -88.7 419.13 -89.07 410.4 -89.3 401.8 -89.38 393.31 -89.5 384.82 -89.43 376.44 -89.17 368.17 -88.9 359.89 -88.4 351.71 -87.65 343.62 -86.86 335.51 -85.8 327.49 -84.48 319.54 -83.08 311.56 -81.4 303.64 -79.46 295.78 -77.44 287.87 -75.15 280 -72.62 272.17 -70.03 264.28 -67.21 256.4 -64.18 248.54 -61.12 240.61 -57.88 232.69 -54.46 224.76 -51.06 216.75 -47.5 208.73 -43.81 200.71 -40.17 192.61 -36.4 184.51 -32.51 176.4 -28.69 168.24 -24.75 160.08 -20.71 151.94 -16.72 143.78 -12.62 135.66 -8.41 127.6 -4.23 119.55 0.07 111.6 4.51 103.78 8.94 96.02 13.52 88.42 18.25 81.01 23 73.73 27.93 66.69 33.02 59.9 38.17 53.29 43.5 46.97 49.01 40.98 54.59 35.19 60.36 29.74 66.32 24.63 72.36 19.74 78.58 15.19 84.98 10.98 91.45 6.94 98.11 3.2 104.92 -0.23 111.8 -3.57 118.84 -6.68 126.02 -9.59 133.25 -12.5 140.62 -15.27 148.11 -17.95 155.63 -20.73 163.27 -23.49 171 -26.24 178.76 -29.19 186.6 -32.19 194.53 -35.25 202.46 -38.55 210.47 -41.93 218.55 -45.39 226.62 -49.07 234.75 -52.8 242.95 -56.54 251.13 -60.44 259.37 -64.28 267.66 -68.03 275.94 -71.82 284.28 -75.42 292.66 -78.79 301.04 -82.05 309.46 -84.99 317.95 -87.57 326.42 -89.93 334.95 -91.87 343.53 -93.36 352.11 -94.59 360.75 -95.36 369.45 -95.67 378.14 -95.75 386.9 -95.41 395.72 -94.69 404.54 -93.85 413.42 -92.71 422.37 -91.31" stroke-dasharray="1 1" transform="rotate(20.8, 400, 400)" opacity="0.70"></path><path d="M421.68 -70.74C430.23 -69.31 438.72 -67.75 447.12 -66.12 455.52 -64.66 463.84 -63.21 472.06 -61.79 480.27 -60.63 488.38 -59.54 496.38 -58.51 504.36 -57.75 512.22 -57.04 519.94 -56.35 527.63 -55.87 535.17 -55.35 542.55 -54.75 549.88 -54.24 557.04 -53.58 564 -52.72 570.9 -51.81 577.59 -50.62 584.06 -49.12 590.45 -47.46 596.6 -45.43 602.49 -43.02 608.3 -40.37 613.84 -37.32 619.11 -33.86 624.29 -30.16 629.19 -26.08 633.81 -21.63 638.34 -16.97 642.59 -12 646.58 -6.75 650.51 -1.38 654.18 4.2 657.62 9.97 661.05 15.75 664.27 21.65 667.32 27.62 670.43 33.51 673.41 39.43 676.31 45.33 679.34 51.08 682.35 56.79 685.39 62.45 688.67 67.91 692.04 73.31 695.56 78.63 699.42 83.76 703.49 88.83 707.82 93.84 712.58 98.68 717.65 103.5 723.06 108.31 728.95 112.97 735.2 117.67 741.84 122.41 748.94 127.06 756.41 131.79 764.21 136.62 772.41 141.4 780.88 146.31 789.58 151.36 798.51 156.4 807.54 161.61 816.59 166.99 825.65 172.39 834.58 177.98 843.25 183.74 851.68 189.56 859.68 195.55 867.14 201.73 874.09 207.96 880.33 214.37 885.75 220.94 890.46 227.58 894.22 234.36 896.99 241.3 898.92 248.28 899.81 255.4 899.65 262.63 898.67 269.91 896.69 277.3 893.77 284.77 890.21 292.28 885.87 299.87 880.84 307.53 875.51 315.2 869.74 322.93 863.69 330.71 857.73 338.49 851.77 346.31 845.96 354.16 840.68 362.01 835.82 369.87 831.51 377.75 828.08 385.63 825.41 393.42 823.54 401.13 822.69 408.83 822.65 416.45 823.41 423.99 825.11 431.53 827.48 439 830.44 446.39 834.11 453.8 838.14 461.14 842.42 468.44 847.06 475.77 851.7 483.07 856.19 490.35 860.67 497.69 864.76 505.04 868.36 512.4 871.6 519.85 874.16 527.34 875.95 534.91 877.15 542.59 877.48 550.36 876.92 558.24 875.64 566.27 873.44 574.43 870.34 582.74 866.54 591.2 861.89 599.82 856.45 608.61 850.41 617.54 843.69 626.63 836.38 635.85 828.63 645.19 820.43 654.64 811.86 664.15 803.06 673.71 794.02 683.27 784.84 692.79 775.62 702.22 766.37 711.52 757.16 720.6 748.07 729.45 739.11 737.97 730.31 746.08 721.75 753.8 713.41 760.98 705.31 767.56 697.52 773.6 689.97 778.94 682.68 783.53 675.71 787.5 668.99 790.68 662.49 793.06 653.28 795.38 636.12 795.81 628.03 794.35 620.31 792.37 605.22 788.19 597.71 786.84 590.27 786.95 574.95 792 566.99 797.4 561.64 802.35 556.13 808.18 550.45 814.84 544.76 822.34 538.89 830.45 532.83 839.01 526.75 847.95 520.48 856.95 514.02 865.78 507.54 874.35 500.86 882.3 494 889.41 487.12 895.61 480.06 900.59 472.82 904.19 465.56 906.47 458.13 907.2 450.54 906.34 442.93 904.16 435.17 900.52 427.26 895.55 419.34 889.67 411.28 882.87 403.08 875.39 394.88 867.77 386.65 860.12 378.4 852.74 370.16 846.02 361.9 840.04 353.64 834.97 345.39 831.11 337.14 828.4 328.91 826.86 320.69 826.67 312.5 827.59 304.33 829.49 296.19 832.47 288.08 836.12 280.02 840.25 272 844.89 264.02 849.57 256.11 854.07 248.24 858.43 240.44 862.2 232.73 865.2 225.06 867.52 217.48 868.8 210.01 868.94 202.59 868.1 195.28 866.05 188.09 862.78 180.97 858.52 173.97 853.14 167.1 846.75 160.31 839.57 153.65 831.6 147.15 822.98 140.71 813.92 134.42 804.49 128.29 794.83 122.22 785.13 116.31 775.46 110.55 765.92 104.85 756.67 99.29 747.75 93.9 739.21 88.53 731.18 83.31 723.63 78.23 716.58 73.16 710.12 68.22 704.15 63.41 698.65 58.59 693.71 53.88 689.17 49.29 684.97 42.39 679.48 29.02 669.9 22.53 665.47 16.04 661.21 3.45 652.06 -2.61 646.93 -8.63 641.43 -20.02 628.72 -25.34 621.45 -28.82 616.37 -32.12 610.96 -35.23 605.24 -38.3 599.38 -41.17 593.23 -43.81 586.82 -46.42 580.28 -48.8 573.5 -50.95 566.49 -53.07 559.4 -54.96 552.1 -56.63 544.63 -58.27 537.1 -59.71 529.42 -60.95 521.6 -62.19 513.75 -63.26 505.78 -64.15 497.72 -65.07 489.64 -65.84 481.48 -66.46 473.26 -67.14 465.03 -67.68 456.74 -68.1 448.41 -68.57 440.08 -68.91 431.7 -69.12 423.29 -69.37 414.88 -69.48 406.54 -69.42 398.26 -69.38 389.98 -69.16 381.76 -68.75 373.6 -68.34 365.43 -67.71 357.32 -66.86 349.27 -65.97 341.19 -64.85 333.16 -63.48 325.17 -62.07 317.15 -60.42 309.16 -58.52 301.2 -56.58 293.21 -54.4 285.23 -52 277.26 -49.57 269.25 -46.93 261.25 -44.09 253.25 -41.25 245.21 -38.23 237.16 -35.05 229.12 -31.89 221.04 -28.58 212.96 -25.14 204.89 -21.74 196.79 -18.22 188.71 -14.58 180.67 -10.99 172.62 -7.29 164.62 -3.49 156.68 0.26 148.77 4.13 140.96 8.1 133.26 12.05 125.64 16.13 118.16 20.32 110.85 24.51 103.66 28.84 96.68 33.31 89.93 37.79 83.34 42.44 77.02 47.25 70.98 52.09 65.13 57.11 59.58 62.3 54.35 67.56 49.32 72.99 44.6 78.6 40.21 84.28 35.99 90.14 32.07 96.17 28.44 102.28 24.93 108.56 21.67 115.01 18.64 121.52 15.63 128.19 12.8 135.01 10.11 141.89 7.35 148.9 4.66 156.05 2.02 163.24 -0.77 170.55 -3.58 177.98 -6.43 185.43 -9.5 192.98 -12.64 200.63 -15.85 208.29 -19.32 216.04 -22.85 223.86 -26.45 231.7 -30.26 239.6 -34.09 247.56 -37.92 255.53 -41.86 263.55 -45.73 271.63 -49.48 279.71 -53.23 287.84 -56.77 296.01 -60.06 304.18 -63.21 312.4 -66.03 320.66 -68.47 328.92 -70.69 337.22 -72.48 345.56 -73.82 353.9 -74.9 362.29 -75.53 370.71 -75.71 379.13 -75.66 387.59 -75.21 396.08 -74.39 404.58 -73.44 413.11 -72.21 421.66 -70.75" stroke-dasharray="7 4" transform="rotate(31.2, 400, 400)" opacity="0.84"></path><path d="M417.99 -50.18C426.11 -48.67 434.13 -47.06 442.05 -45.38 449.96 -43.86 457.76 -42.35 465.44 -40.89 473.11 -39.67 480.65 -38.52 488.05 -37.46 495.44 -36.66 502.68 -35.92 509.77 -35.22 516.82 -34.74 523.71 -34.25 530.42 -33.72 537.09 -33.3 543.57 -32.76 549.85 -32.06 556.08 -31.36 562.11 -30.41 567.91 -29.2 576.41 -27.02 592.18 -20.61 599.43 -16.29 604.13 -13.05 608.6 -9.42 612.84 -5.42 617.05 -1.19 621.05 3.36 624.84 8.23 628.64 13.26 632.26 18.55 635.72 24.06 639.24 29.65 642.63 35.4 645.95 41.28 649.37 47.15 652.75 53.08 656.13 59.06 659.7 64.94 663.32 70.82 667.03 76.68 671.01 82.38 675.13 88.05 679.44 93.65 684.08 99.08 688.96 104.45 694.1 109.77 699.62 114.9 705.44 119.98 711.57 125.03 718.09 129.91 724.92 134.78 732.05 139.65 739.54 144.39 747.3 149.16 755.3 153.96 763.55 158.68 771.97 163.47 780.48 168.34 789.1 173.16 797.71 178.09 806.22 183.13 814.64 188.15 822.82 193.31 830.67 198.61 838.21 203.91 845.26 209.37 851.73 214.98 857.69 220.6 862.93 226.39 867.38 232.32 871.15 238.29 874.05 244.41 876.03 250.67 877.26 256.96 877.55 263.39 876.9 269.96 875.55 276.55 873.34 283.26 870.3 290.09 866.74 296.94 862.52 303.9 857.71 310.96 852.68 318.03 847.28 325.19 841.65 332.43 836.15 339.68 830.65 347 825.3 354.4 820.44 361.79 815.95 369.26 811.93 376.78 808.7 384.3 806.14 391.8 804.29 399.27 803.34 406.74 803.11 414.19 803.58 421.61 804.91 429.05 806.84 436.47 809.31 443.87 812.43 451.3 815.93 458.73 819.68 466.17 823.8 473.65 827.97 481.16 832.08 488.69 836.23 496.29 840.11 503.93 843.61 511.64 846.87 519.43 849.57 527.29 851.64 535.25 853.25 543.29 854.12 551.44 854.21 559.7 853.71 568.05 852.38 576.52 850.25 585.1 847.48 593.77 843.93 602.54 839.62 611.39 834.75 620.31 829.19 629.29 823.02 638.3 816.4 647.31 809.28 656.31 801.71 665.25 793.85 674.1 785.67 682.82 777.24 691.35 768.68 699.69 759.99 707.75 751.21 715.48 742.45 722.88 733.71 729.86 725.02 736.34 716.46 742.38 708.02 747.86 699.74 752.71 691.66 757.06 683.76 760.74 676.06 763.74 668.6 766.23 661.35 768.06 654.29 769.23 647.49 769.99 640.86 770.2 634.41 769.9 628.2 769.4 622.12 768.56 616.18 767.49 607.59 766 591.03 764.05 582.93 764.28 577.65 765.31 572.34 766.97 566.99 769.33 561.71 772.6 556.37 776.65 550.94 781.5 545.55 787.23 540.05 793.68 534.43 800.76 528.84 808.49 523.11 816.62 517.24 825.01 511.37 833.58 505.35 842.05 499.18 850.23 493 858.03 486.67 865.15 480.18 871.4 473.67 876.76 467.01 880.94 460.2 883.83 453.37 885.52 446.39 885.79 439.26 884.64 432.12 882.31 424.84 878.69 417.42 873.88 410 868.28 402.44 861.86 394.75 854.82 387.06 847.66 379.35 840.45 371.61 833.45 363.88 827.02 356.14 821.21 348.4 816.17 340.66 812.2 332.93 809.22 325.22 807.28 317.53 806.54 309.85 806.82 302.21 808.02 294.6 810.24 287.02 813.15 279.49 816.58 272 820.59 264.56 824.77 257.2 828.92 249.87 833.1 242.61 836.88 235.45 840.12 228.33 842.89 221.3 844.83 214.38 845.84 207.51 846.05 200.74 845.21 194.1 843.29 187.51 840.47 181.05 836.59 174.72 831.72 168.45 826.05 162.31 819.52 156.31 812.25 150.37 804.43 144.56 796.08 138.91 787.32 133.3 778.32 127.83 769.13 122.5 759.88 117.21 750.69 112.05 741.61 107.03 732.73 102.03 724.16 97.16 715.9 92.41 707.99 87.66 700.54 83.02 693.48 78.5 686.83 73.95 680.67 69.51 674.91 65.16 669.5 60.78 664.55 56.48 659.9 52.28 655.51 45.93 649.56 33.58 638.72 27.58 633.56 21.6 628.57 10.08 618.1 4.6 612.46 -0.78 606.56 -10.82 593.45 -15.41 586.19 -18.39 581.19 -21.19 575.92 -23.79 570.39 -26.36 564.78 -28.73 558.92 -30.9 552.83 -33.03 546.66 -34.96 540.28 -36.69 533.68 -38.4 527.04 -39.91 520.2 -41.23 513.19 -42.55 506.14 -43.68 498.93 -44.65 491.57 -45.62 484.2 -46.44 476.69 -47.1 469.07 -47.79 461.43 -48.33 453.68 -48.72 445.84 -49.14 437.99 -49.42 430.05 -49.54 422.02 -49.69 413.99 -49.67 405.97 -49.49 397.96 -49.32 389.96 -48.96 381.96 -48.42 373.99 -47.88 366.01 -47.13 358.05 -46.17 350.1 -45.2 342.14 -44.01 334.19 -42.6 326.25 -41.17 318.3 -39.51 310.35 -37.65 302.41 -35.76 294.46 -33.66 286.5 -31.37 278.55 -29.06 270.59 -26.56 262.62 -23.89 254.67 -21.23 246.7 -18.4 238.74 -15.42 230.81 -12.47 222.87 -9.38 214.96 -6.17 207.08 -3 199.23 0.29 191.43 3.69 183.69 7.04 176.01 10.51 168.41 14.07 160.92 17.6 153.52 21.23 146.24 24.96 139.13 28.67 132.13 32.5 125.32 36.44 118.71 40.37 112.25 44.43 106.03 48.62 100.06 52.83 94.26 57.18 88.73 61.68 83.49 66.21 78.42 70.9 73.65 75.75 69.17 80.65 64.85 85.72 60.82 90.96 57.06 96.26 53.43 101.73 50.04 107.37 46.89 113.08 43.78 118.95 40.87 124.99 38.11 131.09 35.33 137.35 32.64 143.75 30.04 150.22 27.32 156.83 24.61 163.58 21.91 170.37 19.02 177.3 16.07 184.33 13.07 191.41 9.84 198.6 6.52 205.88 3.13 213.2 -0.48 220.6 -4.17 228.08 -7.9 235.59 -11.82 243.17 -15.73 250.82 -19.61 258.48 -23.57 266.2 -27.43 273.98 -31.14 281.76 -34.81 289.6 -38.25 297.47 -41.42 305.36 -44.44 313.28 -47.1 321.24 -49.39 329.2 -51.44 337.19 -53.06 345.22 -54.25 353.24 -55.16 361.3 -55.64 369.37 -55.69 377.44 -55.52 385.54 -54.96 393.64 -54.05 401.75 -53.01 409.87 -51.71 417.98 -50.18" stroke-dasharray="2 8" transform="rotate(41.6, 400, 400)" opacity="1.00"></path><path d="M411.84 -29.61C419.48 -28.05 427.01 -26.39 434.42 -24.66 441.82 -23.1 449.09 -21.54 456.24 -20.03 463.37 -18.75 470.36 -17.55 477.21 -16.43 484.04 -15.58 490.71 -14.79 497.22 -14.07 503.7 -13.57 510.02 -13.08 516.16 -12.58 525.23 -11.99 542.37 -10.27 550.43 -8.94 558.24 -7.21 572.83 -1.94 579.62 1.69 586.2 6.04 598.54 16.9 604.35 23.36 608.23 27.96 612.01 32.85 615.71 38 619.5 43.27 623.24 48.75 626.97 54.41 630.85 60.11 634.75 65.93 638.71 71.85 642.88 77.73 647.15 83.66 651.55 89.61 656.21 95.47 661.05 101.32 666.08 107.14 671.42 112.83 676.98 118.48 682.78 124.07 688.91 129.51 695.29 134.9 701.92 140.24 708.87 145.43 716.04 150.57 723.44 155.69 731.09 160.67 738.9 165.64 746.85 170.61 754.94 175.45 763.09 180.33 771.22 185.24 779.36 190.06 787.39 194.94 795.22 199.89 802.89 204.78 810.24 209.76 817.2 214.84 823.8 219.88 829.89 225.03 835.4 230.31 840.38 235.56 844.68 240.95 848.22 246.46 851.14 251.97 853.26 257.62 854.53 263.4 855.15 269.18 854.94 275.1 853.9 281.16 852.27 287.22 849.89 293.41 846.8 299.73 843.29 306.05 839.22 312.5 834.66 319.07 829.94 325.64 824.92 332.32 819.71 339.13 814.65 345.93 809.6 352.84 804.69 359.86 800.22 366.87 796.08 374 792.36 381.23 789.33 388.46 786.88 395.71 785.05 402.98 784.02 410.26 783.62 417.56 783.84 424.88 784.82 432.22 786.35 439.59 788.36 446.99 790.99 454.42 793.96 461.88 797.19 469.4 800.81 476.95 804.51 484.55 808.19 492.22 811.99 499.93 815.6 507.71 818.92 515.57 822.1 523.47 824.84 531.46 827.08 539.52 828.96 547.64 830.23 555.84 830.84 564.1 830.96 572.41 830.37 580.78 829.07 589.2 827.21 597.64 824.64 606.1 821.38 614.55 817.59 622.98 813.15 631.38 808.1 639.69 802.6 647.92 796.57 656.02 790.07 663.94 783.24 671.69 776.03 679.2 768.5 686.43 760.77 693.39 752.81 699.99 744.69 706.18 736.49 712.02 728.2 717.39 719.88 722.25 711.59 726.7 703.33 730.6 695.13 733.92 687.04 736.83 679.06 739.16 671.2 740.92 663.51 742.32 655.96 743.21 648.57 743.62 641.36 743.81 634.31 743.63 627.41 743.15 620.71 742.67 614.14 742.06 607.7 741.4 601.44 740.99 595.29 740.73 589.22 740.72 583.31 741.23 577.47 742.16 571.67 743.59 565.99 745.75 560.34 748.53 554.69 751.97 549.13 756.21 543.55 761.14 537.94 766.72 532.39 773.01 526.78 779.86 521.11 787.16 515.47 794.91 509.75 802.88 503.94 810.93 498.15 819.02 492.25 826.87 486.25 834.32 480.25 841.32 474.14 847.61 467.9 853.02 461.67 857.57 455.31 861.01 448.82 863.24 442.34 864.4 435.73 864.27 428.99 862.87 422.25 860.44 415.39 856.85 408.42 852.22 401.44 846.91 394.34 840.86 387.14 834.25 379.94 827.54 372.72 820.76 365.49 814.14 358.27 808.01 351.04 802.39 343.82 797.42 336.61 793.38 329.41 790.18 322.24 787.9 315.08 786.69 307.95 786.39 300.86 786.93 293.79 788.44 286.77 790.62 279.8 793.35 272.86 796.69 265.99 800.29 259.18 803.99 252.42 807.85 245.73 811.49 239.13 814.77 232.57 817.77 226.1 820.14 219.74 821.78 213.42 822.82 207.21 822.97 201.11 822.19 195.06 820.65 189.13 818.14 183.33 814.71 177.56 810.52 171.92 805.47 166.42 799.63 160.95 793.2 155.61 786.13 150.4 778.52 145.22 770.55 140.17 762.22 135.24 753.65 130.33 744.96 125.54 736.19 120.88 727.42 116.21 718.77 111.66 710.26 107.21 701.95 102.75 693.91 98.39 686.15 94.12 678.68 89.83 671.59 85.62 664.83 81.5 658.38 77.33 652.33 73.25 646.58 69.24 641.12 65.18 636.01 61.2 631.14 57.29 626.46 51.39 619.95 39.92 607.77 34.38 601.89 28.88 596.18 18.42 584.43 13.51 578.26 8.72 571.94 -0.03 558.32 -3.98 550.97 -6.52 545.97 -8.89 540.74 -11.07 535.3 -13.22 529.82 -15.18 524.13 -16.96 518.23 -18.71 512.3 -20.27 506.16 -21.65 499.84 -23.02 493.48 -24.21 486.95 -25.23 480.24 -26.24 473.52 -27.08 466.63 -27.76 459.59 -28.45 452.54 -28.97 445.34 -29.33 438.01 -29.71 430.67 -29.92 423.2 -29.96 415.6 -30.01 408 -29.89 400.37 -29.6 392.72 -29.3 385.07 -28.83 377.4 -28.17 369.71 -27.51 362.02 -26.65 354.31 -25.61 346.6 -24.55 338.88 -23.29 331.15 -21.84 323.42 -20.38 315.69 -18.72 307.95 -16.87 300.21 -15.01 292.47 -12.97 284.74 -10.75 277.01 -8.53 269.29 -6.15 261.58 -3.61 253.9 -1.09 246.24 1.57 238.6 4.37 231.01 7.14 223.46 10.04 215.96 13.05 208.53 16.02 201.15 19.11 193.87 22.29 186.69 25.43 179.59 28.67 172.62 32.02 165.79 35.31 159.07 38.71 152.52 42.21 146.16 45.68 139.93 49.26 133.91 52.94 128.12 56.61 122.47 60.4 117.06 64.32 111.92 68.23 106.92 72.28 102.18 76.47 97.72 80.68 93.39 85.03 89.32 89.53 85.52 94.07 81.82 98.77 78.36 103.62 75.12 108.53 71.94 113.59 68.94 118.81 66.12 124.1 63.28 129.54 60.57 135.13 57.95 140.79 55.25 146.6 52.59 152.55 49.96 158.57 47.18 164.73 44.37 171.02 41.52 177.37 38.47 183.84 35.35 190.43 32.15 197.07 28.73 203.81 25.23 210.66 21.66 217.55 17.88 224.54 14.06 231.6 10.22 238.7 6.23 245.88 2.27 253.12 -1.61 260.4 -5.55 267.73 -9.35 275.11 -12.98 282.52 -16.54 289.98 -19.84 297.47 -22.86 304.98 -25.7 312.53 -28.19 320.1 -30.29 327.69 -32.16 335.3 -33.6 342.92 -34.62 350.56 -35.37 358.21 -35.71 365.87 -35.62 373.54 -35.33 381.2 -34.67 388.87 -33.67 396.53 -32.56 404.19 -31.19 411.83 -29.61" stroke-dasharray="8 5" transform="rotate(52, 400, 400)" opacity="0.96"></path><path d="M404.06 -9.04C411.21 -7.44 418.24 -5.74 425.14 -3.98 432.04 -2.38 438.81 -0.78 445.45 0.77 452.08 2.11 458.57 3.36 464.91 4.54 471.24 5.46 477.42 6.3 483.44 7.07 492.37 7.87 509.39 9.18 517.48 9.86 525.37 10.58 540.3 12.97 547.37 14.83 554.28 17.19 567.42 23.82 573.71 28.16 579.97 33.16 592.23 45.14 598.33 52.03 602.51 56.87 606.7 61.96 610.93 67.27 615.31 72.67 619.77 78.23 624.32 83.94 629.07 89.68 633.96 95.51 638.98 101.41 644.25 107.28 649.68 113.19 655.3 119.11 661.18 124.94 667.26 130.77 673.54 136.57 680.07 142.26 686.8 147.91 693.71 153.53 700.85 159.01 708.14 164.46 715.56 169.87 723.14 175.14 730.79 180.39 738.47 185.62 746.21 190.72 753.9 195.82 761.49 200.92 769 205.92 776.32 210.93 783.38 215.98 790.21 220.95 796.68 225.96 802.73 231.03 808.4 236.04 813.55 241.12 818.11 246.29 823.89 254.01 831.18 269.91 832.56 278.12 832.67 283.61 832.04 289.22 830.7 294.95 828.86 300.67 826.38 306.51 823.3 312.48 819.89 318.44 816 324.53 811.71 330.74 807.3 336.95 802.66 343.29 797.87 349.76 793.23 356.22 788.61 362.81 784.12 369.52 780.03 376.24 776.22 383.08 772.78 390.06 769.95 397.03 767.62 404.06 765.82 411.13 764.73 418.21 764.19 425.35 764.18 432.53 764.85 439.72 766.01 446.98 767.61 454.28 769.77 461.6 772.25 468.98 774.99 476.42 778.1 483.88 781.33 491.41 784.58 498.99 787.99 506.59 791.28 514.26 794.37 521.98 797.4 529.73 800.08 537.52 802.37 545.35 804.41 553.2 805.94 561.07 806.93 568.96 807.54 576.84 807.54 584.72 806.92 592.56 805.84 600.36 804.13 608.1 801.78 615.76 798.98 623.32 795.56 630.75 791.56 638.01 787.15 645.13 782.2 652.03 776.78 658.67 771 665.1 764.82 671.23 758.27 677 751.48 682.5 744.4 687.61 737.08 692.29 729.63 696.65 722.01 700.56 714.26 703.98 706.48 707.07 698.63 709.69 690.77 711.81 682.94 713.64 675.13 715.02 667.37 715.98 659.71 716.73 652.12 717.13 644.63 717.23 637.26 717.28 630.01 717.14 622.87 716.89 615.87 716.78 608.99 716.71 602.22 716.74 595.6 717.14 589.07 717.8 582.64 718.79 576.35 720.34 570.14 722.35 563.99 724.87 557.96 728.06 551.97 731.82 546.03 736.17 540.17 741.2 534.34 746.78 528.51 752.87 522.74 759.51 516.97 766.53 511.17 773.84 505.42 781.43 499.63 789.08 493.8 796.67 488 804.16 482.13 811.32 476.2 818.01 470.29 824.2 464.3 829.66 458.23 834.26 452.17 838.05 446.03 840.8 439.79 842.44 433.56 843.12 427.24 842.65 420.83 841.04 414.42 838.54 407.92 835.02 401.33 830.57 394.74 825.55 388.06 819.86 381.3 813.69 374.54 807.4 367.78 801.05 361.03 794.81 354.28 788.98 347.55 783.57 340.83 778.71 334.12 774.63 327.44 771.28 320.79 768.71 314.16 767.1 307.56 766.28 301.02 766.24 294.49 767.08 288.01 768.56 281.6 770.59 275.21 773.25 268.89 776.23 262.64 779.4 256.42 782.83 250.29 786.18 244.24 789.33 238.23 792.37 232.3 794.96 226.48 797 217.85 799.07 201.17 798.53 193.14 795.73 187.85 792.91 182.68 789.27 177.62 784.87 172.59 779.86 167.67 774.17 162.87 767.89 158.08 761.15 153.4 753.95 148.83 746.37 144.26 738.54 139.8 730.47 135.44 722.24 131.07 713.97 126.79 705.66 122.61 697.39 118.4 689.24 114.28 681.21 110.24 673.36 106.16 665.73 102.15 658.33 98.23 651.16 94.25 644.29 90.34 637.67 86.5 631.3 82.61 625.24 78.78 619.41 75.03 613.79 71.22 608.46 67.49 603.31 63.83 598.3 58.31 591.2 47.66 577.68 42.56 571.11 37.53 564.7 28.09 551.7 23.71 545 19.5 538.22 11.89 523.95 8.53 516.4 5.37 508.68 0 492.31 -2.21 483.67 -3.61 477.83 -4.83 471.82 -5.88 465.64 -6.91 459.45 -7.76 453.08 -8.44 446.56 -9.11 440.03 -9.62 433.34 -9.94 426.5 -10.26 419.66 -10.41 412.67 -10.38 405.54 -10.35 398.4 -10.13 391.22 -9.74 383.99 -9.34 376.76 -8.76 369.5 -8.01 362.2 -7.24 354.9 -6.29 347.58 -5.17 340.24 -4.03 332.9 -2.71 325.55 -1.22 318.19 0.27 310.84 1.95 303.49 3.79 296.14 5.63 288.82 7.64 281.5 9.8 274.21 11.94 266.94 14.24 259.71 16.67 252.52 19.08 245.37 21.62 238.28 24.28 231.26 26.91 224.3 29.64 217.42 32.49 210.64 35.29 203.94 38.19 197.36 41.18 190.91 44.13 184.56 47.18 178.36 50.31 172.33 53.4 166.42 56.58 160.68 59.86 155.16 63.1 149.75 66.44 144.56 69.88 139.6 75.06 132.45 85.98 119.52 91.73 113.72 97.63 108.28 110.14 98.52 116.76 94.11 123.6 89.85 138.07 81.78 145.71 77.85 150.91 75.11 156.25 72.37 161.73 69.62 167.26 66.68 172.93 63.7 178.73 60.66 184.59 57.4 190.57 54.08 196.67 50.67 202.82 47.06 209.08 43.39 215.43 39.66 221.84 35.76 228.34 31.84 234.93 27.92 241.55 23.91 248.26 19.95 255.03 16.09 261.84 12.23 268.71 8.53 275.63 5.02 282.58 1.62 289.58 -1.5 296.62 -4.33 303.69 -6.98 310.78 -9.26 317.91 -11.17 325.05 -12.83 332.21 -14.09 339.38 -14.93 346.57 -15.52 353.76 -15.7 360.96 -15.5 368.16 -15.09 375.36 -14.34 382.55 -13.26 389.74 -12.09 396.91 -10.67 404.05 -9.04" stroke-dasharray="10 2" transform="rotate(62.4, 400, 400)" opacity="0.13"></path><path d="M395.73 11.52C402.38 13.15 408.92 14.87 415.35 16.65 421.78 18.29 428.08 19.93 434.26 21.53 440.44 22.92 446.48 24.23 452.4 25.47 461.19 26.91 478.09 29.08 486.18 29.89 494.13 30.45 509.36 31.66 516.65 32.5 523.82 33.53 537.65 36.83 544.34 39.24 551.01 42.19 564.15 49.99 570.68 54.85 575.13 58.4 579.58 62.26 584.06 66.41 588.66 70.74 593.31 75.34 598.02 80.17 602.9 85.14 607.87 90.32 612.94 95.67 618.2 101.11 623.58 106.69 629.1 112.38 634.83 118.1 640.71 123.89 646.74 129.75 652.98 135.58 659.37 141.44 665.9 147.32 672.63 153.13 679.48 158.94 686.44 164.73 693.54 170.43 700.73 176.11 707.95 181.77 715.25 187.31 722.54 192.83 729.78 198.33 736.99 203.72 744.08 209.09 751 214.44 757.78 219.7 764.31 224.95 770.53 230.21 776.49 235.37 782.06 240.56 787.19 245.77 791.95 250.91 796.19 256.09 799.87 261.31 804.41 269.1 809.59 284.93 810.17 293.01 809.85 298.4 808.9 303.88 807.33 309.46 805.36 315.02 802.84 320.68 799.82 326.45 796.54 332.21 792.86 338.08 788.85 344.07 784.78 350.05 780.51 356.15 776.12 362.37 771.89 368.59 767.69 374.93 763.59 381.4 759.86 387.87 756.38 394.47 753.2 401.2 750.56 407.94 748.35 414.73 746.6 421.58 745.46 428.42 744.8 435.33 744.6 442.29 745 449.25 745.83 456.27 747.04 463.34 748.77 470.41 750.79 477.54 753.06 484.71 755.7 491.89 758.45 499.11 761.27 506.36 764.28 513.62 767.21 520.9 770.02 528.2 772.82 535.49 775.38 542.78 777.62 550.07 779.71 557.33 781.39 564.56 782.63 571.74 783.58 578.87 784.03 585.92 783.95 592.88 783.51 599.75 782.5 606.49 780.95 613.07 779 619.52 776.49 625.77 773.46 631.8 770.04 637.66 766.12 643.25 761.72 648.55 757 653.63 751.85 658.38 746.31 662.77 740.51 666.92 734.39 670.69 727.98 674.06 721.39 677.18 714.58 679.91 707.59 682.22 700.49 684.32 693.26 686.03 685.94 687.37 678.59 688.55 671.19 689.42 663.77 690.01 656.38 690.54 649 690.88 641.66 691.08 634.38 691.37 627.16 691.62 620.01 691.91 612.95 692.45 605.96 693.14 599.06 694.04 592.26 695.36 585.55 697 578.92 699.02 572.39 701.58 565.93 704.59 559.55 708.07 553.27 712.15 547.04 716.72 540.86 721.76 534.77 727.36 528.72 733.37 522.7 739.75 516.75 746.51 510.81 753.51 504.89 760.64 499.01 767.9 493.13 775.09 487.24 782.11 481.39 788.93 475.51 795.36 469.6 801.25 463.72 806.64 457.8 811.29 451.84 815.12 445.9 818.2 439.9 820.32 433.86 821.43 427.82 821.69 421.73 820.93 415.58 819.16 409.43 816.62 403.23 813.19 396.97 808.95 390.71 804.2 384.39 798.88 378.02 793.12 371.65 787.26 365.31 781.32 358.99 775.46 352.67 769.94 346.39 764.76 340.14 760.02 333.9 755.96 327.7 752.51 321.54 749.72 315.4 747.76 309.3 746.5 303.26 745.92 297.24 746.15 291.28 746.98 285.38 748.34 279.51 750.32 273.7 752.66 267.98 755.24 262.27 758.16 256.65 761.12 251.11 764 242.89 768.2 226.94 774.41 219.23 775.95 211.65 776.13 197.02 772.09 189.98 767.85 185.32 764.21 180.77 759.92 176.32 755 171.86 749.61 167.5 743.69 163.24 737.31 158.96 730.59 154.77 723.53 150.67 716.18 146.54 708.66 142.5 700.96 138.54 693.16 134.53 685.34 130.6 677.5 126.75 669.69 122.84 661.97 119 654.36 115.23 646.88 111.4 639.57 107.64 632.44 103.94 625.48 100.18 618.75 96.48 612.2 92.86 605.84 89.17 599.71 85.55 593.76 82.01 587.98 78.42 582.4 74.9 576.97 71.47 571.65 68 566.52 64.63 561.47 61.35 556.49 56.45 549.24 47.22 534.98 42.93 527.86 38.78 520.79 31.24 506.32 27.89 498.86 24.74 491.32 19.33 475.6 17.09 467.39 15.68 461.87 14.45 456.21 13.4 450.4 12.37 444.59 11.52 438.63 10.85 432.53 10.2 426.42 9.74 420.17 9.45 413.77 9.18 407.38 9.09 400.85 9.19 394.18 9.3 387.51 9.6 380.8 10.07 374.04 10.56 367.28 11.23 360.49 12.07 353.67 12.92 346.86 13.95 340.02 15.14 333.17 16.35 326.33 17.72 319.49 19.25 312.65 20.78 305.83 22.48 299.01 24.32 292.23 26.15 285.47 28.13 278.74 30.25 272.05 32.35 265.4 34.58 258.81 36.94 252.29 39.26 245.82 41.7 239.42 44.25 233.13 46.75 226.9 49.36 220.78 52.07 214.78 54.72 208.86 57.47 203.08 60.3 197.45 63.09 191.91 65.96 186.54 68.91 181.34 73.31 173.79 82.48 159.81 87.26 153.39 92.09 147.32 102.22 136.29 107.54 131.3 112.98 126.54 124.47 117.78 130.55 113.69 136.79 109.6 150 101.55 156.97 97.47 161.71 94.6 166.58 91.69 171.58 88.74 176.62 85.61 181.8 82.41 187.1 79.14 192.45 75.68 197.92 72.14 203.5 68.55 209.12 64.77 214.86 60.95 220.7 57.1 226.58 53.12 232.56 49.15 238.62 45.21 244.73 41.22 250.91 37.33 257.17 33.55 263.46 29.81 269.81 26.26 276.23 22.93 282.67 19.72 289.16 16.79 295.7 14.17 302.26 11.75 308.86 9.69 315.48 8 322.13 6.55 328.79 5.49 335.47 4.82 342.17 4.4 348.87 4.35 355.57 4.68 362.28 5.19 368.99 6.03 375.68 7.17 382.38 8.4 389.06 9.86 395.72 11.52" stroke-dasharray="6 5" transform="rotate(72.80000000000001, 400, 400)" opacity="0.08"></path><path d="M387.97 32.09C394.16 33.73 400.25 35.47 406.24 37.27 412.23 38.93 418.12 40.6 423.91 42.23 432.53 44.35 449.22 47.89 457.29 49.29 465.25 50.28 480.66 51.79 488.11 52.42 495.48 52.94 509.82 54.43 516.82 55.56 523.82 56.98 537.65 61.2 544.55 64.1 551.55 67.54 565.76 76.21 573.04 81.42 578.03 85.17 583.08 89.19 588.21 93.48 593.49 97.91 598.85 102.58 604.32 107.46 609.95 112.45 615.68 117.62 621.53 122.94 627.54 128.34 633.67 133.86 639.9 139.48 646.29 145.13 652.77 150.85 659.34 156.63 666.03 162.39 672.79 168.19 679.58 174 686.45 179.78 693.32 185.55 700.16 191.33 707.01 197.04 713.77 202.74 720.42 208.42 726.98 214.03 733.36 219.62 739.52 225.2 745.5 230.69 751.19 236.18 756.55 241.66 761.63 247.05 766.31 252.46 770.56 257.87 774.45 263.2 777.85 268.56 780.72 273.94 784.14 281.93 787.49 298.04 787.4 306.19 786.76 311.6 785.56 317.08 783.84 322.63 781.8 328.15 779.3 333.75 776.38 339.44 773.26 345.1 769.82 350.86 766.11 356.71 762.36 362.55 758.46 368.49 754.47 374.54 750.63 380.57 746.83 386.72 743.11 392.97 739.72 399.22 736.54 405.59 733.62 412.07 731.17 418.55 729.08 425.07 727.38 431.62 726.22 438.18 725.46 444.78 725.09 451.4 725.26 458.03 725.79 464.69 726.65 471.37 727.99 478.06 729.59 484.76 731.42 491.47 733.59 498.18 735.9 504.9 738.28 511.6 740.87 518.29 743.44 524.96 745.92 531.6 748.46 538.21 750.81 544.78 752.94 551.27 754.98 557.72 756.7 564.08 758.07 570.34 759.62 579.55 760.14 597.08 759.02 605.3 756.92 613.1 749.84 627.23 744.91 633.46 739.08 639.12 725.09 648.56 717.07 652.33 711.41 654.56 705.5 656.48 699.35 658.1 693.07 659.6 686.61 660.83 680 661.82 673.31 662.78 666.51 663.55 659.63 664.19 652.73 664.89 645.77 665.53 638.8 666.15 631.84 666.97 624.88 667.87 617.94 668.89 611.04 670.24 604.18 671.81 597.36 673.64 590.6 675.91 583.9 678.51 577.25 681.47 570.67 684.94 564.15 688.8 557.69 693.08 551.3 697.84 544.97 703 538.69 708.52 532.47 714.45 526.3 720.67 520.18 727.11 514.11 733.8 508.07 740.58 502.07 747.37 496.11 754.16 490.17 760.79 484.24 767.16 478.35 773.26 472.46 778.91 466.58 784.02 460.72 788.61 454.86 792.5 448.98 795.61 443.12 798.03 437.25 799.58 431.36 800.23 425.47 800.13 419.57 799.12 413.64 797.24 407.71 794.69 401.76 791.36 395.78 787.33 389.8 782.88 383.8 777.91 377.77 772.55 371.74 767.1 365.75 761.57 359.81 756.09 353.88 750.88 347.99 745.94 342.16 741.36 336.33 737.35 330.56 733.84 324.84 730.89 316.31 727.83 299.58 725.78 291.4 726.62 283.3 728.79 267.52 735.2 259.85 738.93 252.28 742.78 237.6 749.18 230.5 751.3 223.49 752.43 209.95 751.15 203.4 748.61 196.93 744.73 184.41 733.28 178.34 725.9 174.29 720.44 170.32 714.57 166.42 708.34 162.49 701.84 158.63 695.08 154.83 688.09 150.99 680.97 147.21 673.72 143.5 666.37 139.73 659 136.02 651.62 132.37 644.25 128.66 636.94 125 629.7 121.41 622.55 117.75 615.53 114.16 608.62 110.63 601.84 107.04 595.22 103.52 588.73 100.06 582.38 96.56 576.2 93.13 570.15 89.79 564.22 86.4 558.45 83.11 552.78 79.91 547.2 76.68 541.77 73.56 536.4 70.55 531.09 66.09 523.3 57.78 507.96 53.98 500.32 50.35 492.75 43.9 477.42 41.11 469.61 38.53 461.76 34.28 445.61 32.63 437.29 31.21 428.87 29.32 411.5 28.86 402.54 28.64 396.53 28.61 390.41 28.77 384.18 28.95 377.96 29.32 371.71 29.86 365.43 30.42 359.16 31.16 352.88 32.07 346.58 33 340.29 34.09 334 35.34 327.72 36.6 321.45 38.01 315.2 39.58 308.97 41.14 302.76 42.85 296.59 44.7 290.46 46.53 284.36 48.5 278.31 50.58 272.33 52.65 266.39 54.83 260.53 57.13 254.76 59.39 249.03 61.75 243.41 64.21 237.9 67.87 229.78 75.57 214.31 79.59 206.99 83.6 199.94 91.93 186.79 96.25 180.69 100.58 174.87 109.58 164.16 114.27 159.24 119.01 154.51 128.96 145.7 134.19 141.55 139.53 137.4 150.78 129.25 156.72 125.16 162.8 120.85 175.63 111.86 182.37 107.12 186.94 103.76 191.63 100.33 196.44 96.85 201.28 93.19 206.24 89.47 211.31 85.72 216.41 81.82 221.62 77.9 226.93 73.99 232.28 69.99 237.72 66.03 243.25 62.14 248.81 58.23 254.45 54.45 260.17 50.81 265.92 47.25 271.74 43.89 277.62 40.77 283.52 37.79 289.49 35.1 295.49 32.72 301.52 30.54 307.6 28.72 313.7 27.25 319.82 26.01 325.97 25.15 332.14 24.67 338.33 24.4 344.52 24.49 350.73 24.93 356.94 25.54 363.15 26.46 369.36 27.65 375.58 28.92 381.78 30.41 387.96 32.08" stroke-dasharray="9 7" transform="rotate(83.2, 400, 400)" opacity="0.13"></path><path d="M381.87 52.66C387.63 54.31 393.31 56.05 398.92 57.85 407.29 60.37 423.63 65.06 431.61 67.13 436.9 68.26 442.11 69.32 447.24 70.31 457.53 71.64 467.52 72.77 477.26 73.83 487.06 74.39 496.68 75.23 506.13 76.52 515.77 77.88 525.35 80.05 534.95 83.14 544.85 86.75 554.89 91.46 565.12 97.26 575.78 103.73 586.74 111.25 598 119.71 609.75 128.71 621.83 138.47 634.18 148.83 646.9 159.45 659.76 170.48 672.62 181.78 685.5 193.08 698.07 204.51 710.08 215.99 721.58 227.3 732.1 238.62 741.35 249.91 749.52 260.98 756.04 272.05 760.69 283.14 763.92 294.03 765.14 305 764.34 316.07 762.25 327 758.4 338.11 753 349.42 750.08 355.05 746.89 360.73 743.48 366.49 740.07 372.23 736.53 378.04 732.92 383.92 729.46 389.8 726.02 395.75 722.67 401.78 719.61 407.81 716.72 413.92 714.04 420.11 711.77 426.3 709.81 432.49 708.17 438.69 707 444.9 706.16 451.1 705.65 457.3 705.61 463.5 705.88 469.69 706.44 475.87 707.42 482.04 708.64 488.19 710.05 494.3 713.84 506.5 717.98 518.51 722.13 530.23 726.64 541.79 730.49 552.94 733.4 563.55 735.78 573.84 736.74 583.44 736.17 592.2 734.58 600.5 731.3 607.84 726.39 614.13 720.41 619.92 712.93 624.67 704.13 628.39 694.52 631.82 683.86 634.47 672.39 636.5 660.47 638.79 648.01 640.95 635.21 643.27 622.29 646.6 609.23 650.67 596.15 655.73 583.16 662.4 570.25 670.37 557.49 679.66 544.91 690.47 532.47 702.27 520.21 714.71 508.12 727.61 496.17 740.16 484.33 751.72 472.63 762.05 460.99 770.24 449.42 775.73 440.78 778.08 423.55 777.84 414.95 775.27 409.22 772.75 403.49 769.55 397.76 765.74 392.03 761.57 386.3 756.95 380.56 751.98 374.82 746.94 369.15 741.8 363.55 736.69 357.94 731.8 352.4 727.12 346.93 722.72 341.46 718.79 336.05 715.27 330.72 712.21 325.38 709.76 320.12 707.82 314.93 706.39 304.55 705.44 294.47 706.29 284.72 708.57 274.97 712.43 265.54 716.69 256.46 720.74 247.35 724.74 238.58 727.49 230.15 728.61 221.66 728.44 213.48 726.16 205.62 721.74 197.63 715.72 189.92 707.71 182.48 698.01 174.85 687.13 167.46 675.03 160.29 662.09 152.9 648.68 145.71 634.9 138.74 621.03 131.55 607.28 124.58 593.72 117.87 580.47 110.98 567.62 104.39 555.15 98.16 543.06 91.84 531.4 85.93 520.02 80.5 508.88 75.09 498.06 70.22 487.34 65.94 476.64 61.78 466.12 58.25 455.51 55.39 444.76 53.43 436.71 50.45 420.36 49.44 412.04 48.68 403.66 48.13 386.58 48.35 377.88 48.8 369.14 50.64 351.73 52 343.07 53.55 334.45 57.44 317.37 59.75 308.95 62.92 297.82 66.6 286.93 70.75 276.36 74.81 265.93 79.27 255.88 84.09 246.3 88.74 236.9 93.7 228.02 98.95 219.7 103.98 211.57 109.3 204.01 114.87 197.05 120.25 190.19 125.91 183.84 131.88 177.98 137.7 172.03 143.87 166.41 150.39 161.04 156.87 155.32 163.75 149.65 171.03 143.95 178.35 137.67 186.11 131.22 194.3 124.56 202.57 117.25 211.29 109.77 220.41 102.18 229.65 94.18 239.29 86.3 249.27 78.75 259.36 71.27 269.77 64.48 280.45 58.6 291.21 53.33 302.2 49.29 313.37 46.6 321.79 45.25 338.81 44.6 347.38 45.26 353.11 45.95 358.85 46.93 364.6 48.16 370.35 49.47 376.11 50.97 381.86 52.65" stroke-dasharray="7 5" transform="rotate(93.6, 400, 400)" opacity="0.18"></path><path d="M378.26 73.22C388.99 76.47 399.54 79.95 409.87 83.45 420.21 86.29 430.35 88.91 440.3 91.24 450.28 92.77 460.1 94.08 469.79 95.26 479.56 95.9 489.27 96.7 498.93 97.8 508.77 98.84 518.65 100.51 528.62 102.92 538.85 105.7 549.26 109.43 559.85 114.12 570.78 119.39 581.95 125.66 593.34 132.86 605.04 140.61 616.93 149.17 628.92 158.42 641.07 168.05 653.17 178.2 665.05 188.76 676.77 199.47 688 210.44 698.52 221.58 708.44 232.7 717.31 243.9 724.9 255.14 731.48 266.28 736.52 277.43 739.86 288.58 741.99 299.62 742.38 310.68 741.02 321.78 738.66 332.78 734.83 343.86 729.72 355.04 724.25 366.16 718.06 377.42 711.46 388.82 705.44 400.2 699.67 411.75 694.46 423.45 690.66 435.15 687.91 446.73 686.28 458.15 686.24 469.55 687.2 480.75 688.97 491.68 691.94 502.54 695.27 513.06 698.7 523.15 702.58 533.07 706.01 542.47 708.74 551.23 711.19 559.74 712.52 567.51 712.61 574.49 711.94 581.14 709.84 586.96 706.33 591.91 701.91 596.62 696.13 600.56 689.11 603.82 681.31 607.12 672.45 610 662.71 612.66 652.46 615.85 641.54 619.23 630.14 623.04 618.5 627.93 606.55 633.62 594.43 640.29 582.28 648.33 570.06 657.43 557.87 667.51 545.76 678.67 533.72 690.39 521.79 702.31 509.97 714.29 498.26 725.61 486.68 735.72 475.19 744.54 463.79 751.27 452.5 755.5 441.28 757.54 430.11 756.79 419.03 753.28 407.97 747.91 396.97 740.45 386.02 731.41 375.08 722.13 364.44 712.8 354.11 704.08 343.77 696.9 333.73 691.18 324.01 687.14 314.26 685.3 304.82 685.07 295.71 686.18 286.56 688.86 277.72 692.13 269.2 695.5 260.62 699.17 252.33 702.06 244.35 703.81 236.27 704.74 228.47 703.99 220.92 701.47 213.24 697.65 205.78 692.02 198.56 684.74 191.14 676.31 183.92 666.52 176.9 655.66 169.66 644.13 162.62 631.91 155.77 619.27 148.72 606.45 141.89 593.51 135.31 580.6 128.58 567.84 122.14 555.26 116.04 542.93 109.88 530.85 104.13 519.03 98.82 507.45 93.57 496.12 88.82 484.96 84.65 473.95 80.6 463.1 77.18 452.3 74.41 441.53 71.82 430.84 69.92 420.1 68.73 409.31 67.74 398.54 67.46 387.68 67.92 376.74 68.56 365.79 69.88 355.03 71.85 344.47 73.91 333.92 76.56 323.61 79.76 313.59 82.95 303.6 86.63 293.95 90.74 284.67 94.75 275.47 99.13 266.69 103.84 258.37 108.38 250.15 113.21 242.4 118.3 235.16 123.17 227.97 128.29 221.25 133.64 214.99 138.78 208.68 144.18 202.73 149.84 197.09 155.33 191.23 161.11 185.54 167.2 179.94 173.19 173.92 179.54 167.85 186.23 161.67 192.91 154.93 199.97 148.02 207.41 140.94 214.89 133.34 222.76 125.65 231 117.96 239.31 110.04 247.99 102.36 257.01 95.12 266.1 88.08 275.51 81.8 285.19 76.47 294.94 71.78 304.93 68.27 315.12 66.06 325.36 64.66 335.76 64.53 346.3 65.65 356.86 67.3 367.52 69.88 378.25 73.22" stroke-dasharray="1 5" transform="rotate(104, 400, 400)" opacity="0.64"></path><path d="M377.63 93.79C387.68 97.02 397.63 100.47 407.48 103.96 417.34 106.87 427.11 109.59 436.78 112.07 446.5 113.8 456.17 115.31 465.8 116.66 475.52 117.44 485.26 118.29 495.02 119.33 504.95 120.18 514.97 121.49 525.09 123.39 535.43 125.49 545.92 128.37 556.56 132.08 567.43 136.24 578.45 141.3 589.58 147.23 600.87 153.66 612.2 160.92 623.47 168.89 634.73 177.28 645.77 186.28 656.44 195.78 666.81 205.53 676.58 215.66 685.54 226.06 693.88 236.57 701.16 247.27 707.21 258.07 712.35 268.88 716.08 279.76 718.31 290.66 719.54 301.53 719.27 312.42 717.54 323.31 715.03 334.15 711.31 345.02 706.55 355.9 701.57 366.75 696 377.63 690.11 388.54 684.75 399.44 679.6 410.37 674.88 421.31 671.37 432.25 668.72 442.93 666.97 453.31 666.59 463.67 667.03 473.69 668.17 483.33 670.38 492.9 672.95 502.03 675.66 510.65 678.88 519.14 681.81 527.06 684.24 534.35 687.31 544.7 687.92 561.79 684.92 568.61 681.81 572.93 677.49 576.77 672.04 580.25 665.91 584 658.76 587.65 650.71 591.36 642.15 595.74 632.87 600.5 623 605.8 612.82 612.12 602.22 619.2 591.32 627.11 580.29 636.11 569.07 645.88 557.76 656.27 546.45 667.33 535.1 678.58 523.78 689.66 512.52 700.5 501.3 710.47 490.18 719.11 479.11 726.45 468.13 731.82 457.25 734.91 446.41 736.11 435.67 734.87 425.02 731.26 414.4 726.12 403.85 719.17 393.4 710.84 382.96 702.31 372.83 693.66 363.04 685.45 353.22 678.48 343.71 672.67 334.52 668.21 325.3 665.63 316.37 664.44 307.75 664.47 299.07 666 290.68 668.21 282.58 670.74 274.39 673.81 266.47 676.48 258.81 678.43 251.04 679.96 243.49 680.25 236.17 679.16 228.7 677.1 221.43 673.5 214.35 668.41 207.09 662.29 200 654.84 193.09 646.23 185.99 636.86 179.06 626.62 172.32 615.72 165.42 604.44 158.73 592.77 152.28 580.89 145.73 568.92 139.46 556.92 133.52 544.98 127.55 533.14 121.97 521.42 116.83 509.88 111.76 498.49 107.19 487.25 103.16 476.2 99.28 465.26 96 454.46 93.35 443.78 90.9 433.16 89.12 422.63 88.03 412.17 87.15 401.74 86.97 391.35 87.5 381.03 88.22 370.7 89.61 360.67 91.62 350.96 93.74 341.24 96.41 331.85 99.6 322.81 102.8 313.78 106.45 305.12 110.5 296.86 114.47 288.62 118.78 280.78 123.4 273.37 127.85 265.97 132.57 258.98 137.53 252.39 142.28 245.75 147.25 239.46 152.43 233.48 157.4 227.35 162.59 221.44 168.01 215.7 173.24 209.65 178.72 203.65 184.47 197.65 190.08 191.21 196 184.68 202.21 178.02 208.36 170.88 214.84 163.6 221.65 156.23 228.45 148.48 235.6 140.75 243.08 133.16 250.59 125.47 258.43 118.15 266.6 111.35 274.8 104.86 283.31 99.18 292.1 94.44 300.92 90.36 310.01 87.4 319.33 85.66 328.66 84.65 338.21 84.82 347.94 86.11 357.67 87.87 367.58 90.48 377.62 93.79" stroke-dasharray="8 4" transform="rotate(114.4, 400, 400)" opacity="0.97"></path><path d="M380.08 114.36C389.51 117.53 398.94 120.94 408.33 124.4 417.75 127.35 427.15 130.16 436.55 132.77 445.99 134.69 455.46 136.41 464.94 137.96 474.51 138.94 484.15 139.92 493.85 140.99 503.67 141.78 513.6 142.9 523.61 144.44 533.78 146.04 544.05 148.26 554.4 151.15 564.87 154.35 575.4 158.33 585.92 163.07 596.48 168.23 606.94 174.16 617.2 180.79 627.33 187.83 637.12 195.51 646.42 203.73 655.35 212.26 663.61 221.23 671.04 230.57 677.86 240.1 683.66 249.9 688.32 259.89 692.19 269.97 694.82 280.19 696.13 290.48 696.65 300.81 695.91 311.18 693.94 321.56 691.41 331.94 687.88 342.32 683.5 352.67 679.03 363.02 674.07 373.35 668.85 383.61 664.13 393.88 659.55 404.08 655.3 414.19 652.08 424.3 649.53 434.06 647.71 443.44 647.05 452.8 647.05 461.75 647.63 470.26 649.17 478.72 651.03 486.7 653.05 494.18 655.6 501.58 657.97 508.44 660.01 514.75 662.81 523.85 664.28 539.42 662.43 546.14 660.34 550.65 657.22 554.94 653.09 559.11 648.42 563.69 642.8 568.38 636.32 573.3 629.38 578.92 621.7 584.98 613.38 591.58 604.75 599.04 595.61 607.14 586.07 615.85 576.36 625.33 566.35 635.29 556.15 645.54 545.87 656.1 535.47 666.54 525.01 676.55 514.54 686.1 504.06 694.65 493.6 701.84 483.17 707.78 472.78 711.91 462.46 714.01 452.16 714.48 441.94 712.87 431.8 709.23 421.68 704.34 411.64 697.9 401.69 690.28 391.74 682.47 382.11 674.5 372.79 666.81 363.45 660.12 354.4 654.31 345.65 649.58 336.86 646.41 328.35 644.4 320.11 643.47 311.82 643.91 303.77 645.06 295.98 646.65 288.1 648.94 280.44 651.11 273.01 652.89 265.46 654.59 258.11 655.43 250.95 655.26 243.64 654.46 236.51 652.43 229.54 649.15 222.41 645.05 215.44 639.72 208.64 633.28 201.68 626.11 194.88 618 188.28 609.11 181.54 599.73 175.01 589.79 168.74 579.43 162.38 568.84 156.31 558.01 150.57 547.06 144.84 536.04 139.48 525.02 134.55 514.04 129.7 503.11 125.34 492.26 121.51 481.55 117.83 470.9 114.73 460.38 112.24 450.01 109.96 439.69 108.31 429.49 107.33 419.45 106.57 409.42 106.48 399.51 107.08 389.75 107.87 379.99 109.3 370.59 111.33 361.56 113.46 352.52 116.13 343.84 119.28 335.53 122.46 327.21 126.06 319.26 130.03 311.69 133.94 304.09 138.18 296.85 142.7 289.97 147.07 283.03 151.7 276.4 156.54 270.08 161.19 263.63 166.05 257.41 171.1 251.4 175.94 245.15 180.98 239.02 186.21 232.96 191.26 226.57 196.52 220.16 202 213.7 207.33 206.85 212.92 199.9 218.75 192.86 224.49 185.44 230.52 177.96 236.82 170.49 243.08 162.78 249.64 155.21 256.5 147.88 263.34 140.6 270.49 133.78 277.94 127.55 285.39 121.7 293.13 116.67 301.16 112.57 309.18 109.1 317.48 106.7 326.03 105.41 334.58 104.78 343.37 105.21 352.39 106.65 361.4 108.49 370.63 111.11 380.07 114.36" stroke-dasharray="3 6" transform="rotate(124.8, 400, 400)" opacity="0.50"></path><path d="M385.26 134.93C394.13 138.03 403.05 141.36 412 144.76 420.97 147.73 429.98 150.61 439.04 153.32 448.13 155.43 457.29 157.35 466.49 159.12 475.77 160.33 485.12 161.49 494.53 162.68 504.03 163.53 513.61 164.59 523.23 165.94 532.94 167.22 542.69 168.97 552.44 171.24 562.23 173.68 571.97 176.75 581.59 180.47 591.16 184.49 600.52 189.19 609.58 194.54 618.43 200.23 626.85 206.54 634.72 213.4 642.21 220.56 649 228.2 654.98 236.26 660.4 244.54 664.88 253.16 668.33 262.03 671.12 271.06 672.84 280.28 673.44 289.63 673.43 299.07 672.36 308.59 670.3 318.16 667.83 327.77 664.57 337.39 660.61 346.97 656.64 356.59 652.28 366.15 647.7 375.63 643.56 385.12 639.52 394.51 635.72 403.75 632.78 413 630.36 421.88 628.5 430.36 627.62 438.83 627.25 446.88 627.36 454.51 628.3 462.11 629.51 469.28 630.89 475.99 632.79 482.69 634.59 488.95 636.16 494.78 638.52 503.36 640.25 518.95 639.15 526.25 637.8 531.32 635.59 536.36 632.54 541.45 629.05 546.99 624.74 552.76 619.64 558.82 614.15 565.49 607.95 572.59 601.12 580.13 593.98 588.33 586.31 596.97 578.19 606 569.86 615.5 561.18 625.19 552.21 634.9 543.14 644.63 533.85 654.02 524.43 662.78 514.96 670.96 505.39 678.08 495.78 683.88 486.16 688.54 476.52 691.55 466.9 692.79 457.29 692.68 447.7 690.79 438.16 687.18 428.64 682.57 419.16 676.66 409.75 669.71 400.33 662.6 391.19 655.31 382.33 648.17 373.46 641.8 364.84 636.09 356.48 631.21 348.09 627.6 339.93 624.94 332.01 623.18 324.04 622.64 316.28 622.78 308.74 623.41 301.11 624.8 293.67 626.27 286.42 627.6 279.07 629.09 271.88 630.06 264.85 630.34 257.71 630.3 250.71 629.33 243.86 627.38 236.88 624.86 230.05 621.29 223.38 616.74 216.59 611.58 209.96 605.51 203.52 598.63 197 591.27 190.69 583.24 184.62 574.68 178.52 565.81 172.7 556.55 167.21 547.01 161.75 537.31 156.66 527.45 151.99 517.51 147.42 507.51 143.32 497.5 139.72 487.53 136.29 477.57 133.4 467.67 131.1 457.88 129 448.11 127.51 438.46 126.65 428.94 126.01 419.44 126.01 410.07 126.66 400.86 127.5 391.65 128.95 382.8 130.96 374.32 133.08 365.82 135.71 357.67 138.8 349.86 141.92 342.03 145.44 334.52 149.32 327.34 153.15 320.09 157.29 313.14 161.7 306.46 165.99 299.68 170.52 293.13 175.25 286.78 179.82 280.26 184.58 273.89 189.51 267.62 194.25 261.11 199.18 254.64 204.27 248.19 209.18 241.43 214.28 234.64 219.56 227.79 224.69 220.64 230.03 213.42 235.58 206.18 241.02 198.68 246.7 191.22 252.62 183.86 258.46 176.41 264.57 169.19 270.93 162.32 277.25 155.6 283.85 149.4 290.71 143.84 297.55 138.69 304.67 134.35 312.05 130.92 319.42 128.06 327.05 126.19 334.95 125.33 342.83 125.04 350.97 125.7 359.36 127.27 367.74 129.16 376.37 131.76 385.25 134.93" stroke-dasharray="1 9" transform="rotate(135.20000000000002, 400, 400)" opacity="0.91"></path><path d="M392.46 155.5C400.8 158.5 409.21 161.73 417.68 165.06 426.16 168.01 434.72 170.92 443.33 173.71 451.97 175.97 460.68 178.09 469.44 180.06 478.25 181.52 487.12 182.9 496.02 184.27 504.97 185.28 513.95 186.4 522.92 187.7 531.92 188.85 540.89 190.32 549.78 192.18 558.65 194.08 567.38 196.47 575.9 199.37 584.31 202.46 592.43 206.12 600.18 210.34 607.7 214.8 614.74 219.83 621.2 225.37 627.31 231.16 632.73 237.44 637.39 244.14 641.57 251.06 644.91 258.34 647.35 265.93 649.27 273.68 650.27 281.68 650.35 289.87 649.96 298.17 648.72 306.6 646.67 315.13 644.36 323.71 641.4 332.35 637.88 340.99 634.41 349.67 630.62 358.32 626.64 366.91 623.05 375.52 619.51 384.04 616.14 392.44 613.48 400.84 611.2 408.9 609.34 416.62 608.29 424.34 607.63 431.7 607.34 438.71 607.76 445.71 608.41 452.37 609.2 458.69 610.48 465.03 611.71 471.06 612.8 476.81 614.58 485.43 616.1 502 615.41 510.22 614.54 515.98 612.97 521.83 610.71 527.82 608.15 534.22 604.88 540.86 600.92 547.78 596.66 555.18 591.75 562.91 586.25 570.94 580.49 579.41 574.19 588.12 567.42 596.99 560.47 606.07 553.11 615.11 545.42 623.95 537.61 632.61 529.53 640.76 521.23 648.18 512.87 654.98 504.34 660.72 495.7 665.23 487.03 668.72 478.27 670.78 469.47 671.3 460.66 670.71 451.82 668.64 442.97 665.13 434.13 660.83 425.29 655.43 416.46 649.14 407.63 642.72 399.03 636.08 390.65 629.5 382.25 623.52 374.07 618 366.1 613.08 358.1 609.18 350.29 606.02 342.68 603.59 335.02 602.21 327.54 601.43 320.23 601.13 312.86 601.6 305.64 602.26 298.57 602.94 291.43 603.96 284.42 604.7 277.56 605.02 270.6 605.27 263.77 604.88 257.09 603.77 250.31 602.32 243.67 600.05 237.18 596.97 230.62 593.45 224.22 589.12 218.02 584.04 211.77 578.55 205.73 572.39 199.95 565.65 194.16 558.6 188.65 551.06 183.47 543.15 178.34 535.04 173.57 526.63 169.2 518.03 164.95 509.32 161.15 500.48 157.82 491.56 154.67 482.61 152.02 473.64 149.93 464.69 148.04 455.73 146.72 446.82 145.99 437.98 145.47 429.16 145.55 420.41 146.24 411.78 147.12 403.14 148.56 394.81 150.52 386.78 152.6 378.74 155.16 370.99 158.15 363.52 161.18 356.01 164.6 348.76 168.35 341.75 172.07 334.68 176.09 327.81 180.36 321.13 184.55 314.34 188.96 307.69 193.57 301.16 198.04 294.47 202.7 287.86 207.52 281.29 212.17 274.51 216.99 267.74 221.96 260.96 226.77 253.95 231.74 246.92 236.87 239.87 241.86 232.6 247.02 225.35 252.36 218.14 257.59 210.81 263.01 203.6 268.64 196.58 274.17 189.59 279.93 182.92 285.92 176.66 291.84 170.63 298 165.16 304.4 160.34 310.76 155.94 317.37 152.31 324.23 149.52 331.06 147.26 338.15 145.89 345.49 145.43 352.8 145.45 360.38 146.3 368.21 147.96 376.03 149.88 384.11 152.43 392.45 155.49" stroke-dasharray="9 7" transform="rotate(145.60000000000002, 400, 400)" opacity="0.88"></path><path d="M400.7 176.07C408.49 178.95 416.36 182.05 424.29 185.27 432.23 188.18 440.24 191.08 448.29 193.91 456.36 196.3 464.48 198.57 472.63 200.73 480.8 202.44 489 204.06 497.19 205.65 505.38 206.87 513.56 208.14 521.68 209.52 529.77 210.68 537.77 212.06 545.62 213.7 553.41 215.28 560.99 217.23 568.31 219.56 575.48 221.97 582.32 224.82 588.75 228.13 594.95 231.59 600.66 235.53 605.82 239.91 610.65 244.48 614.86 249.5 618.37 254.91 621.5 260.5 623.9 266.46 625.53 272.74 626.77 279.16 627.25 285.87 626.97 292.81 626.36 299.84 625.07 307.07 623.12 314.44 621.02 321.87 618.4 329.41 615.33 337.01 612.35 344.64 609.1 352.31 605.68 359.97 602.6 367.64 599.53 375.29 596.56 382.88 594.17 390.48 592.05 397.82 590.23 404.92 589.05 412.01 588.17 418.86 587.57 425.45 587.54 432.07 587.7 438.45 587.98 444.62 588.69 450.83 589.39 456.87 590 462.76 590.84 468.76 591.45 474.66 591.76 480.51 592.12 486.53 592.06 492.58 591.53 498.68 590.91 505.04 589.74 511.52 588.03 518.17 586.12 525.13 583.63 532.3 580.56 539.68 577.27 547.37 573.43 555.26 569.04 563.31 564.46 571.58 559.37 579.9 553.84 588.19 548.13 596.5 542.03 604.59 535.56 612.31 528.98 619.74 522.09 626.57 514.95 632.64 507.73 638.09 500.29 642.55 492.67 645.89 485.02 648.37 477.22 649.61 469.31 649.55 461.39 648.61 453.38 646.44 445.3 643.08 437.22 639.11 429.09 634.22 420.91 628.57 412.74 622.81 404.72 616.82 396.87 610.82 389 605.26 381.29 599.99 373.74 595.15 366.17 591.1 358.75 587.6 351.48 584.67 344.17 582.6 337 581.04 329.97 579.92 322.89 579.49 315.93 579.31 309.11 579.26 302.23 579.62 295.46 579.89 288.82 579.94 282.12 580.09 275.54 579.84 269.09 579.11 262.58 578.24 256.21 576.78 250 574.69 243.75 572.34 237.66 569.33 231.77 565.68 225.87 561.73 220.18 557.18 214.75 552.06 209.33 546.68 204.2 540.81 199.38 534.5 194.64 528 190.24 521.14 186.23 513.99 182.34 506.72 178.87 499.21 175.86 491.54 173 483.8 170.63 475.94 168.77 468 167.09 460.04 165.95 452.02 165.35 444 164.95 435.97 165.1 427.94 165.82 419.94 166.71 411.93 168.12 404.13 170.02 396.54 172.03 388.95 174.49 381.54 177.35 374.34 180.26 367.1 183.53 360.03 187.12 353.12 190.69 346.14 194.56 339.3 198.67 332.56 202.71 325.73 206.98 318.98 211.44 312.3 215.79 305.48 220.32 298.69 225 291.93 229.56 285.01 234.27 278.1 239.11 271.2 243.82 264.15 248.68 257.11 253.67 250.1 258.54 242.99 263.55 235.96 268.72 229.05 273.78 222.13 279.01 215.4 284.41 208.94 289.71 202.61 295.21 196.64 300.89 191.13 306.51 185.88 312.33 181.2 318.36 177.16 324.34 173.52 330.54 170.6 336.97 168.44 343.36 166.75 349.98 165.83 356.83 165.72 363.66 166.01 370.73 167.02 378.04 168.73 385.34 170.65 392.89 173.12 400.69 176.06" stroke-dasharray="5 8" transform="rotate(156, 400, 400)" opacity="0.76"></path><path d="M408.84 196.63C416.06 199.38 423.34 202.33 430.65 205.41 437.97 208.24 445.33 211.1 452.71 213.93 460.1 216.39 467.5 218.78 474.89 221.1 482.29 223.01 489.66 224.87 496.98 226.68 504.28 228.15 511.51 229.63 518.62 231.17 525.69 232.46 532.61 233.89 539.33 235.48 545.96 236.95 552.35 238.68 558.44 240.67 567.18 243.81 582.38 251.91 588.63 256.94 593.94 262.5 601.2 275.62 603.05 283.11 603.85 291.04 602.09 308.36 599.7 317.61 597.85 323.89 595.59 330.32 592.97 336.88 590.45 343.46 587.71 350.15 584.81 356.9 582.21 363.66 579.58 370.48 576.98 377.32 574.85 384.17 572.9 390.88 571.14 397.45 569.91 404.02 568.87 410.46 568.01 416.76 567.64 423.09 567.39 429.3 567.23 435.42 567.45 441.59 567.66 447.7 567.81 453.77 568.2 459.93 568.43 466.1 568.44 472.28 568.56 478.62 568.36 485.02 567.83 491.51 567.27 498.19 566.3 504.99 564.91 511.91 563.41 519.04 561.45 526.3 559.03 533.66 556.47 541.19 553.43 548.79 549.94 556.39 546.3 564.05 542.22 571.62 537.73 579 533.11 586.26 528.11 593.19 522.75 599.67 517.3 605.8 511.52 611.3 505.47 616.06 499.35 620.26 492.98 623.56 486.39 625.88 479.76 627.5 472.94 628.07 465.96 627.57 458.97 626.39 451.83 624.2 444.58 621.04 437.32 617.42 429.95 613.04 422.49 608 415.04 602.88 407.67 597.53 400.41 592.1 393.14 587 385.97 582.07 378.91 577.4 371.84 573.34 364.86 569.65 358 566.39 351.12 563.81 344.33 561.62 337.66 559.8 330.95 558.58 324.34 557.62 317.84 556.82 311.31 556.45 304.88 556.1 298.56 555.67 292.21 555.45 285.97 555.01 279.86 554.27 273.72 553.56 267.72 552.45 261.87 550.89 256.02 549.22 250.33 547.06 244.84 544.39 239.37 541.56 234.11 538.21 229.1 534.37 224.13 530.36 219.43 525.88 215.04 520.97 210.73 515.91 206.75 510.48 203.14 504.7 199.65 498.82 196.54 492.64 193.86 486.22 191.33 479.74 189.24 473.05 187.62 466.19 186.18 459.3 185.21 452.28 184.75 445.14 184.46 437.99 184.67 430.75 185.4 423.44 186.29 416.12 187.65 408.91 189.46 401.8 191.38 394.69 193.7 387.68 196.4 380.78 199.15 373.85 202.24 367 205.63 360.24 209.03 353.43 212.7 346.68 216.6 339.99 220.47 333.23 224.54 326.51 228.81 319.82 233 313.04 237.37 306.28 241.88 299.55 246.3 292.73 250.86 285.94 255.55 279.18 260.14 272.36 264.86 265.6 269.7 258.93 274.44 252.25 279.31 245.7 284.32 239.35 289.22 233.06 294.28 227.03 299.47 221.31 304.58 215.77 309.85 210.62 315.28 205.94 320.64 201.55 326.17 197.69 331.88 194.43 337.54 191.53 343.39 189.28 349.42 187.72 355.43 186.53 361.63 186.03 368.03 186.22 374.41 186.72 381 187.85 387.8 189.58 394.59 191.47 401.6 193.84 408.83 196.63" stroke-dasharray="1 7" transform="rotate(166.4, 400, 400)" opacity="0.37"></path><path d="M415.76 217.2C422.37 219.78 429 222.55 435.63 225.46 442.26 228.18 448.89 230.95 455.5 233.73 462.11 236.22 468.69 238.68 475.22 241.1 481.74 243.19 488.19 245.24 494.54 247.25 500.87 248.96 507.07 250.67 513.12 252.41 522.02 254.68 538.61 259.51 546.15 262.22 553.16 265.02 565.07 271.86 569.81 275.98 573.79 280.45 578.95 290.98 580.1 297.03 580.46 303.44 578.57 317.63 576.46 325.34 574.89 330.58 573 336.01 570.82 341.62 568.74 347.24 566.47 353.02 564.05 358.93 561.87 364.85 559.64 370.9 557.41 377.05 555.53 383.21 553.75 389.34 552.09 395.42 550.84 401.51 549.7 407.57 548.68 413.59 548.03 419.64 547.47 425.67 546.96 431.68 546.76 437.75 546.55 443.83 546.3 449.92 546.27 456.09 546.12 462.31 545.82 468.58 545.65 474.95 545.25 481.4 544.59 487.91 543.98 494.54 543.06 501.24 541.81 508.01 540.53 514.87 538.9 521.77 536.89 528.68 534.82 535.63 532.36 542.53 529.53 549.32 526.61 556.05 523.31 562.59 519.66 568.85 515.92 574.91 511.83 580.58 507.42 585.77 502.94 590.61 498.15 594.85 493.08 598.41 485.26 602.63 468.37 606.19 459.38 605.4 453.3 604.07 447.05 601.93 440.65 599.02 434.23 595.76 427.67 591.87 420.99 587.43 414.3 582.93 407.64 578.2 401.04 573.36 394.43 568.74 387.88 564.19 381.39 559.8 374.9 555.83 368.46 552.12 362.1 548.68 355.74 545.76 349.44 543.14 343.22 540.78 336.99 538.93 330.83 537.29 324.77 535.82 318.69 534.74 312.7 533.73 306.82 532.73 298.03 531.57 281.05 528.7 272.91 526.72 264.95 524.43 250.01 517.96 243.11 513.71 236.54 508.92 224.93 497.29 219.99 490.53 215.56 483.34 208.78 467.42 206.52 458.81 205.3 452.97 204.51 446.92 204.17 440.68 203.99 434.44 204.25 428.03 204.98 421.47 205.85 414.9 207.14 408.34 208.84 401.8 210.63 395.26 212.8 388.74 215.3 382.25 217.87 375.74 220.74 369.26 223.89 362.8 227.07 356.32 230.49 349.85 234.15 343.4 237.78 336.92 241.63 330.45 245.65 324.01 249.63 317.54 253.77 311.08 258.06 304.67 262.29 298.23 266.65 291.85 271.14 285.54 275.55 279.23 280.09 273.03 284.75 266.97 289.32 260.97 294.01 255.15 298.82 249.56 303.55 244.08 308.4 238.9 313.38 234.05 318.28 229.4 323.32 225.14 328.49 221.34 333.6 217.79 338.86 214.75 344.25 212.25 352.36 209.23 369.29 206.57 378.13 206.93 384.07 207.6 390.17 208.8 396.44 210.51 402.71 212.34 409.15 214.58 415.75 217.2" stroke-dasharray="9 2" transform="rotate(176.8, 400, 400)" opacity="0.18"></path><path d="M420.53 237.77C432.4 242.47 444.2 247.77 455.76 253.32 467.3 258 478.55 262.68 489.31 267.26 499.93 270.84 509.92 274.49 519.01 278.32 527.78 281.48 535.46 285.16 541.81 289.46 547.64 293.52 551.98 298.46 554.68 304.33 556.83 310.2 557.37 317.08 556.33 324.9 555.04 332.77 552.49 341.56 548.87 351.15 545.65 360.75 541.89 371.11 537.83 382.14 534.86 393.17 532.07 404.38 529.53 415.68 528.17 427.04 526.86 438.61 525.48 450.3 524.87 462.18 523.8 474.3 522.09 486.52 520.64 498.93 518.2 511.38 514.71 523.57 511.12 535.61 506.32 547.01 500.33 557.26 494.14 566.66 486.79 574.29 478.37 579.67 469.81 583.5 460.28 584.69 449.93 583.06 439.52 579.97 428.37 574.46 416.59 566.87 404.82 559.07 393.03 550.66 381.36 542.3 369.69 535.14 358.15 528.6 346.85 522.83 335.56 518.6 324.51 514.9 313.83 511.52 303.19 509.14 292.97 506.5 283.32 503.31 273.79 500.44 264.93 496.58 256.92 491.62 249.18 486.57 242.43 480.28 236.85 472.8 231.7 465.17 227.85 456.41 225.47 446.63 223.6 436.79 223.26 426.04 224.56 414.48 226.33 402.92 229.58 391.14 234.07 379.3 238.81 367.45 244.63 355.51 251.33 343.62 258.03 331.72 265.49 319.86 273.53 308.24 281.4 296.71 289.82 285.53 298.66 274.99 307.28 264.81 316.35 255.55 325.8 247.53 335.06 240.26 344.77 234.56 354.89 230.69 364.89 227.8 375.38 226.83 386.32 227.85 397.22 229.57 408.64 232.94 420.52 237.77" stroke-dasharray="1 6" transform="rotate(187.2, 400, 400)" opacity="0.17"></path><path d="M422.47 258.34C432.91 262.63 443.11 267.51 452.97 272.7 462.79 277.26 472.21 281.93 481.04 286.62 489.76 290.52 497.79 294.52 504.96 298.64 511.87 302.15 517.8 306.01 522.56 310.29 528.58 316.53 533.76 332.18 532.99 341.85 531.99 348.53 530 356.03 527.14 364.31 524.64 372.57 521.63 381.61 518.25 391.4 515.68 401.18 513.09 411.28 510.57 421.57 508.91 431.9 507.19 442.47 505.36 453.17 504.15 463.94 502.57 474.83 500.52 485.67 498.76 496.49 496.28 507.11 493.01 517.25 489.78 527.07 485.62 536.08 480.53 543.9 475.36 550.93 469.24 556.37 462.21 559.9 455.1 562.27 447.12 562.53 438.37 560.6 429.58 557.65 420.07 552.81 409.92 546.3 399.78 539.63 389.53 532.33 379.31 524.87 369.11 518.22 358.96 511.82 349 505.85 339.07 501 329.35 496.5 319.97 492.26 310.66 488.89 301.74 485.43 293.37 481.69 285.14 478.39 277.53 474.48 270.71 469.84 264.14 465.3 258.45 459.87 253.81 453.51 249.53 447.12 246.37 439.77 244.49 431.52 243.03 423.23 242.88 414.08 244.14 404.11 245.79 394.14 248.71 383.88 252.73 373.47 256.96 363.09 262.17 352.59 268.17 342.14 274.23 331.76 280.98 321.48 288.28 311.52 295.52 301.74 303.26 292.41 311.39 283.78 319.4 275.55 327.81 268.23 336.53 262.08 345.14 256.57 354.12 252.42 363.4 249.82 372.6 247.96 382.16 247.66 392.02 248.98 401.85 250.79 412.03 253.95 422.47 258.34" stroke-dasharray="5 7" transform="rotate(197.6, 400, 400)" opacity="0.28"></path><path d="M421.32 278.91C430.25 282.74 438.84 287.12 447.01 291.85 455.15 296.15 462.81 300.66 469.88 305.26 476.86 309.31 483.17 313.49 488.7 317.78 496.32 323.62 506.67 336.25 509.21 343.42 510.4 348.19 510.64 353.54 509.94 359.49 509.25 365.37 507.79 371.91 505.63 379.11 503.76 386.28 501.42 394.13 498.67 402.66 496.5 411.18 494.17 420 491.77 428.98 489.97 437.97 488.03 447.14 485.92 456.34 484.3 465.53 482.35 474.69 480.04 483.64 478 492.47 475.43 500.93 472.29 508.8 469.24 516.31 465.51 522.99 461.08 528.56 456.65 533.5 451.47 537.1 445.58 539.16 439.65 540.42 433.01 540.06 425.71 538.03 418.38 535.34 410.42 531.2 401.89 525.73 393.36 520.15 384.69 513.96 376.03 507.49 367.38 501.52 358.76 495.55 350.29 489.75 341.88 484.69 333.64 479.8 325.71 475.06 317.87 470.98 310.38 466.86 303.39 462.63 296.54 458.8 290.25 454.63 284.65 450.02 279.27 445.59 274.66 440.57 270.93 434.91 267.5 429.29 265.02 422.97 263.61 415.95 262.52 408.92 262.53 401.18 263.72 392.78 265.22 384.38 267.78 375.72 271.27 366.98 274.96 358.26 279.49 349.49 284.71 340.82 290.02 332.25 295.95 323.87 302.39 315.85 308.82 308.04 315.71 300.71 322.96 294.08 330.16 287.81 337.71 282.37 345.53 277.95 353.29 274.02 361.34 271.22 369.6 269.68 377.83 268.64 386.3 268.85 394.94 270.33 403.58 272.12 412.4 275 421.32 278.91" stroke-dasharray="6 9" transform="rotate(208, 400, 400)" opacity="0.67"></path><path d="M417.25 299.48C424.62 302.79 431.61 306.61 438.17 310.78 444.71 314.68 450.77 318.84 456.28 323.16 464.16 329.18 476.61 341.5 480.98 347.9 484.45 354.16 487.54 368.06 487.24 375.89 486.87 381.18 485.89 386.93 484.34 393.17 483.02 399.37 481.25 406.09 479.09 413.3 477.31 420.51 475.29 427.89 473.1 435.33 471.32 442.76 469.33 450.23 467.15 457.61 465.3 464.94 463.17 472.11 460.74 478.96 458.53 485.66 455.93 491.93 452.92 497.58 448.31 505.24 436.65 515.5 429.51 517.57 424.56 518.05 419.08 517.34 413.08 515.39 407.07 513.05 400.56 509.62 393.6 505.16 386.63 500.62 379.55 495.53 372.48 490.12 365.43 484.98 358.41 479.68 351.52 474.37 344.68 469.51 338.01 464.65 331.61 459.84 325.3 455.46 319.3 451.04 313.73 446.56 308.29 442.4 303.32 438.04 298.94 433.44 292.94 426.63 284.75 411.23 282.84 402.48 282.09 396.5 282.22 390.04 283.29 383.13 284.61 376.23 286.79 369.22 289.72 362.21 292.82 355.23 296.62 348.3 301 341.55 305.47 334.89 310.49 328.48 315.94 322.46 321.42 316.6 327.31 311.24 333.51 306.5 339.71 302.01 346.21 298.25 352.93 295.32 359.64 292.72 366.57 291.01 373.64 290.28 380.7 289.85 387.92 290.38 395.21 291.88 402.51 293.56 409.88 296.1 417.25 299.48" stroke-dasharray="5 3" transform="rotate(218.4, 400, 400)" opacity="0.54"></path><path d="M410.81 320.04C422.42 325.46 432.61 332.47 440.99 340.3 449.24 347.31 455.56 355.12 459.63 363.46 463.57 371.14 465.37 379.78 464.98 389.31 464.85 398.61 463 409.17 459.51 420.83 456.96 432.49 453.35 444.18 448.99 455.18 445.48 465.98 440.85 475.67 435.17 483.33 429.85 490.18 423.07 494.4 414.91 495.27 406.79 495.03 397.13 491.46 386.18 484.59 375.23 477.54 364.11 468.84 353.48 459.56 343 451.19 333.19 442.43 324.76 433.58 316.68 425.51 310.22 416.82 306 407.54 302.37 398.48 301.16 388.38 302.87 377.43 305.22 366.47 310.19 355.72 317.1 345.84 324.32 336.18 333.26 327.78 343.26 321.36 353.35 315.57 364.42 312.14 375.87 311.58 387.34 311.66 399.19 314.48 410.81 320.04" stroke-dasharray="0 10" transform="rotate(228.8, 400, 400)" opacity="0.82"></path><path d="M402.88 340.61C411.43 344.85 418.85 350.4 424.9 356.71 430.91 362.65 435.52 369.35 438.57 376.47 441.62 383.27 443.19 390.71 443.22 398.58 443.45 406.33 442.36 414.72 439.93 423.49 438.01 432.27 435.06 440.61 431.39 448.06 428.17 455.37 424.06 461.56 419.19 466.11 414.55 470.24 408.95 472.46 402.5 472.42 396.11 471.87 388.76 469.08 380.66 464.02 372.56 458.86 364.51 452.34 356.94 445.13 349.46 438.31 342.59 430.93 336.78 423.37 331.19 416.19 326.82 408.62 324.08 400.86 321.68 393.24 321.02 385.2 322.45 376.99 324.26 368.78 327.97 361.17 333.09 354.52 338.43 347.98 345.07 342.59 352.52 338.76 360.08 335.21 368.37 333.38 376.92 333.53 385.51 333.95 394.33 336.29 402.88 340.61" stroke-dasharray="7 6" transform="rotate(239.20000000000002, 400, 400)" opacity="0.90"></path><path d="M394.56 361.18C405.73 366.96 413.95 376.39 418.25 386.99 422.65 397.15 423.56 409.01 420.35 420.67 418.01 432.32 412.38 441.49 404.96 446.36 397.98 450.62 388.52 449.96 377.8 443.46 367.07 436.77 357.15 426.44 350.09 415.34 343.41 404.74 340.11 392.95 342.03 381.93 344.67 370.89 352.03 362.6 361.66 358.45 371.56 354.61 383.38 355.24 394.56 361.18" stroke-dasharray="5 2" transform="rotate(249.6, 400, 400)" opacity="0.59"></path></g></svg>