<svg xmlns="http://www.w3.org/2000/svg" version="1.1" xmlns:xlink="http://www.w3.org/1999/xlink" xmlns:svgjs="http://svgjs.dev/svgjs" viewBox="0 0 800 800"><defs><linearGradient x1="50%" y1="0%" x2="50%" y2="100%" id="ccchaos-grad"><stop stop-color="hsl(206, 75%, 49%)" stop-opacity="1" offset="0%"></stop><stop stop-color="hsl(331, 90%, 56%)" stop-opacity="1" offset="100%"></stop></linearGradient></defs><g stroke-width="2" stroke="url(#ccchaos-grad)" fill="none" stroke-linecap="round"><path d="M378.52 63.74Q386.45 67.17 394.56 70.74 402.87 74.48 411.39 78.44 420.12 82.64 429.09 87.12 438.3 91.9 447.75 97 457.45 102.42 467.4 108.18 477.59 114.27 488.03 120.67 498.7 127.36 509.6 134.31 520.71 141.49 532.01 148.85 543.5 156.35 555.15 163.94 566.94 171.55 578.84 179.13 590.83 186.62 602.88 193.97 614.97 201.12 627.06 208.02 639.12 214.62 651.13 220.88 663.05 226.76 674.84 232.25 686.49 237.33 697.95 241.98 709.21 246.22 720.23 250.04 722.65 260.68 723.78 271.31 723.59 281.94 722.08 292.57 719.3 303.21 715.35 313.84 710.37 324.47 704.54 335.1 698.06 345.74 691.15 356.37 684.06 367 677.04 377.63 670.33 388.27 664.17 398.9 658.78 409.53 654.34 420.17 651.02 430.8 648.92 441.43 648.13 452.06 648.66 462.7 650.51 473.33 653.6 483.96 657.83 494.59 663.04 505.23 669.07 515.86 675.68 526.49 682.66 537.13 689.76 547.76 696.72 558.39 703.31 569.02 709.29 579.66 714.45 590.29 707.34 598.11 699.91 605.32 692.16 611.87 684.07 617.71 675.66 622.82 666.93 627.19 657.87 630.83 648.51 633.78 638.85 636.06 628.91 637.74 618.7 638.89 608.25 639.61 597.58 639.98 586.7 640.12 575.65 640.13 564.45 640.15 553.12 640.27 541.69 640.63 530.19 641.34 518.64 642.51 507.08 644.22 495.53 646.57 484.01 649.63 472.54 653.46 461.16 658.09 449.88 663.55 438.72 669.83 427.71 676.93 416.84 684.8 406.15 693.39 395.64 702.63 385.32 712.43 371.37 712.85 357.47 713.6 343.45 713.6 329.23 712.46 314.54 708.45 299.49 702.29 291.72 697.86 283.81 692.62 275.74 686.59 267.51 679.81 259.13 672.3 250.6 664.15 241.92 655.41 233.08 646.19 224.11 636.57 215.01 626.67 205.79 616.6 196.45 606.47 187.02 596.4 177.5 586.49 167.9 576.86 158.25 567.61 148.55 558.82 138.83 550.57 129.08 542.93 119.34 535.94 118.37 525.98 117.24 516.02 116 506.06 114.69 496.1 113.36 486.14 112.04 476.18 110.8 466.23 109.67 456.27 108.68 446.31 107.89 436.35 107.31 426.39 106.96 416.43 106.86 406.48 107.01 396.52 107.4 386.56 108.03 376.6 108.86 366.64 109.88 356.68 111.04 346.73 112.3 336.77 113.62 326.81 114.95 316.85 116.25 306.89 117.47 296.94 118.57 286.98 119.51 277.02 120.25 267.06 120.78 257.1 121.06 247.15 121.1 237.19 125.17 220.36 138.4 210.04 147.22 206.89 155.93 203.99 164.51 201.27 172.98 198.68 189.48 193.6 205.62 188.34 221.23 182.23 236.57 175.35 251.58 166.85 266.48 157.29 273.92 151.88 281.36 146.14 288.84 140.08 296.37 133.73 303.98 127.13 311.67 120.32 319.48 113.33 327.41 106.23 335.48 99.05 343.72 91.85 352.13 84.67 360.72 77.56 374.02 67.15 378.52 63.74" stroke-dasharray="5 0" transform="rotate(0, 400, 400)" opacity="0.05"></path><path d="M377.55 76.21Q385.63 79.45 393.9 82.83 402.36 86.36 411.03 90.1 419.92 94.06 429.02 98.29 438.35 102.8 447.89 107.62 457.66 112.75 467.64 118.19 477.83 123.95 488.23 130.01 498.81 136.36 509.58 142.97 520.51 149.82 531.58 156.86 542.79 164.06 554.11 171.37 565.51 178.75 576.98 186.13 588.49 193.47 600.02 200.72 611.53 207.82 623.01 214.72 634.42 221.38 645.74 227.75 656.95 233.8 668.01 239.5 678.9 244.82 689.59 249.75 700.07 254.27 710.31 258.41 711.88 268.66 712.25 278.92 711.42 289.18 709.4 299.44 706.27 309.7 702.12 319.96 697.09 330.22 691.34 340.48 685.07 350.74 678.46 361 671.75 371.26 665.13 381.51 658.84 391.77 653.07 402.03 648.02 412.29 643.84 422.55 640.67 432.81 638.62 443.07 637.74 453.33 638.08 463.59 639.62 473.85 642.3 484.11 646.04 494.37 650.73 504.63 656.2 514.89 662.28 525.15 668.78 535.41 675.48 545.66 682.16 555.92 688.61 566.18 694.03 584.96 686.62 599.64 679.52 605.16 672.13 610.01 656.31 617.38 639.61 622.84 630.77 624.56 621.65 625.79 612.27 626.61 602.65 627.09 592.8 627.34 582.73 627.44 572.47 627.51 562.04 627.65 551.46 627.95 540.74 628.53 529.92 629.48 519.02 630.89 508.05 632.84 497.05 635.4 486.03 638.63 475.02 642.57 464.04 647.25 453.11 652.69 442.25 658.88 431.48 665.81 420.82 673.44 410.27 681.72 399.87 690.58 389.61 699.95 376.43 700.22 363.17 700.8 349.59 700.79 335.75 699.8 321.31 696.31 306.48 690.92 298.81 687 290.99 682.36 283.02 676.99 274.9 670.91 266.63 664.15 258.21 656.75 249.66 648.78 240.97 640.3 232.16 631.4 223.23 622.16 214.2 612.68 205.07 603.05 195.86 593.38 186.58 583.77 177.25 574.31 167.87 565.09 158.45 556.22 149.02 547.76 139.59 539.78 130.16 532.34 129.05 522.73 127.8 513.13 126.47 503.52 125.08 493.91 123.7 484.31 122.35 474.7 121.09 465.1 119.96 455.49 118.99 445.88 118.22 436.28 117.66 426.67 117.34 417.07 117.27 407.46 117.45 397.86 117.88 388.25 118.53 378.64 119.4 369.04 120.45 359.43 121.64 349.83 122.94 340.22 124.31 330.62 125.7 321.01 127.07 311.4 128.37 301.8 129.56 292.19 130.6 282.59 131.46 272.98 132.11 263.38 132.53 253.77 132.7 244.17 136.84 228.15 149.73 218.81 158.29 216.1 166.75 213.57 183.27 208.78 199.43 204.01 215.01 198.72 230.25 192.83 244.99 185.57 259.5 177.35 266.64 172.64 273.74 167.6 280.8 162.23 287.86 156.54 294.91 150.56 301.99 144.31 309.1 137.84 316.27 131.18 323.51 124.37 330.84 117.45 338.27 110.48 345.82 103.48 353.51 96.52 361.36 89.63 373.46 79.53 377.55 76.21" stroke-dasharray="8 8" transform="rotate(4.04, 400, 400)" opacity="0.09"></path><path d="M377.78 88.68Q385.99 91.74 394.39 94.92 402.98 98.25 411.76 101.77 420.74 105.51 429.91 109.49 439.28 113.74 448.84 118.27 458.59 123.09 468.52 128.22 478.62 133.65 488.87 139.37 499.28 145.37 509.82 151.63 520.47 158.13 531.23 164.84 542.07 171.72 552.97 178.74 563.91 185.84 574.88 192.99 585.84 200.15 596.78 207.25 607.67 214.25 618.49 221.11 629.22 227.78 639.84 234.22 650.31 240.38 660.62 246.25 670.76 251.78 680.69 256.96 690.4 261.77 699.87 266.21 700.66 276.08 700.35 285.95 698.95 295.82 696.51 305.7 693.09 315.57 688.81 325.44 683.78 335.31 678.15 345.18 672.11 355.06 665.82 364.93 659.48 374.8 653.27 384.67 647.38 394.54 641.99 404.42 637.26 414.29 633.33 424.16 630.32 434.03 628.31 443.9 627.37 453.78 627.53 463.65 628.78 473.52 631.09 483.39 634.37 493.26 638.55 503.14 643.48 513.01 649.03 522.88 655.03 532.75 661.3 542.62 667.64 552.49 673.88 562.37 679.54 580.05 672.99 593.01 659.58 601.19 645.4 607.58 629.9 611.27 613.63 613.63 605.06 614.2 596.24 614.53 587.2 614.72 577.95 614.85 568.49 615.02 558.85 615.31 549.03 615.81 539.07 616.62 528.97 617.81 518.76 619.45 508.46 621.62 498.08 624.36 487.65 627.73 477.18 631.76 466.7 636.47 456.22 641.87 445.77 647.95 435.36 654.7 425 662.07 414.73 670.04 404.54 678.53 394.45 687.48 381.83 687.6 369.01 688.03 355.74 687.99 342.13 687.13 327.87 684.1 313.2 679.4 305.6 675.97 297.87 671.88 289.99 667.12 281.96 661.71 273.8 655.67 265.51 649.01 257.1 641.79 248.56 634.07 239.92 625.9 231.18 617.36 222.35 608.52 213.45 599.46 204.48 590.29 195.45 581.07 186.38 571.9 177.28 562.86 168.16 554.04 159.03 545.51 149.91 537.35 140.81 529.61 139.57 520.35 138.22 511.09 136.81 501.83 135.37 492.57 133.95 483.31 132.6 474.04 131.34 464.78 130.22 455.52 129.28 446.26 128.53 437 128.01 427.74 127.73 418.48 127.69 409.22 127.9 399.95 128.36 390.69 129.04 381.43 129.93 372.17 131 362.91 132.22 353.65 133.56 344.39 134.96 335.13 136.4 325.86 137.82 316.6 139.19 307.34 140.46 298.08 141.6 288.82 142.58 279.56 143.35 270.29 143.9 261.03 144.22 251.77 148.45 236.52 161.01 228.03 177.49 223.45 193.65 219.03 209.26 214.36 224.52 209.25 239.23 203.04 253.62 196 267.55 187.38 281.26 177.8 288.02 172.46 294.74 166.84 301.43 160.95 308.12 154.82 314.8 148.49 321.51 141.99 328.25 135.36 335.05 128.64 341.91 121.87 348.86 115.1 355.9 108.35 363.06 101.68 374.07 91.9 377.78 88.68" stroke-dasharray="11 6" transform="rotate(8.08, 400, 400)" opacity="0.13"></path><path d="M379.19 101.17Q387.5 104.04 395.98 107.03 404.63 110.16 413.46 113.47 422.46 116.98 431.63 120.72 440.96 124.7 450.45 128.96 460.09 133.48 469.87 138.3 479.78 143.39 489.8 148.77 499.93 154.42 510.15 160.32 520.45 166.47 530.8 172.83 541.19 179.37 551.6 186.06 562.02 192.87 572.42 199.76 582.78 206.68 593.09 213.59 603.32 220.45 613.46 227.22 623.48 233.84 633.37 240.3 643.11 246.53 652.67 252.51 662.05 258.21 671.23 263.61 684.6 275.77 688.09 292.34 686.21 301.81 683.42 311.28 679.79 320.75 675.42 330.22 670.44 339.69 664.98 349.16 659.19 358.63 653.23 368.1 647.26 377.57 641.45 387.05 635.96 396.52 630.93 405.99 626.52 415.46 622.83 424.93 619.97 434.4 618.01 443.87 617.02 453.34 617.02 462.81 618.01 472.28 619.95 481.75 622.81 491.22 626.5 500.69 630.91 510.16 635.93 519.63 641.42 529.1 647.23 538.57 653.2 548.04 659.16 557.51 664.89 574.1 659.06 585.42 646.77 591.92 633.82 596.88 619.7 599.61 604.89 601.31 588.93 601.94 572.32 602.37 563.66 602.67 554.8 603.14 545.77 603.85 536.58 604.88 527.24 606.3 517.76 608.17 508.17 610.53 498.47 613.44 488.69 616.93 478.84 621.02 468.94 625.74 459 631.08 449.05 637.03 439.1 643.59 429.16 650.7 419.25 658.35 409.39 666.46 399.59 675 387.33 674.98 374.8 675.26 361.71 675.2 348.24 674.43 334.11 671.82 319.55 667.74 304.31 660.87 288.66 652.21 280.62 646.84 272.46 640.9 264.2 634.42 255.83 627.44 247.37 620.01 238.84 612.19 230.22 604.03 221.55 595.61 212.83 587 204.07 578.27 195.28 569.5 186.47 560.76 177.66 552.14 168.85 543.69 160.05 535.49 151.28 527.6 149.93 518.68 148.51 509.76 147.04 500.84 145.56 491.92 144.13 483 142.78 474.08 141.54 465.15 140.45 456.23 139.54 447.31 138.84 438.39 138.36 429.47 138.11 420.55 138.12 411.62 138.36 402.7 138.84 393.78 139.55 384.86 140.46 375.94 141.55 367.01 142.78 358.09 144.14 349.17 145.57 340.25 147.04 331.33 148.51 322.4 149.94 313.48 151.29 304.56 152.51 295.64 153.59 286.72 154.49 277.79 155.17 268.87 155.64 259.95 159.97 245.42 172.22 237.64 188.21 233.52 203.92 229.37 219.1 224.75 233.96 219.61 248.27 213.29 262.26 206.13 275.76 197.47 289 187.9 301.9 176.94 314.66 165.27 320.99 159.09 327.31 152.76 333.63 146.32 339.97 139.8 346.34 133.25 352.76 126.69 359.24 120.18 365.8 113.73 375.81 104.27 379.19 101.17" stroke-dasharray="7 1" transform="rotate(12.12, 400, 400)" opacity="0.16"></path><path d="M381.7 113.64Q398.55 119.14 415.99 125.18 434 131.97 452.53 139.67 471.5 148.41 490.83 158.21 510.41 169.04 530.13 180.82 549.87 193.36 569.49 206.43 588.86 219.76 607.84 233.06 626.3 245.99 644.14 258.28 661.23 269.66 677.5 279.91 675.5 298.02 670.15 316.14 661.99 334.25 651.83 352.37 640.69 370.48 629.67 388.6 619.89 406.71 612.32 424.83 607.72 442.94 606.54 461.06 608.91 479.17 614.58 497.29 623 515.4 633.32 533.52 644.5 551.63 655.43 569.75 644.91 576.93 633.72 582.19 621.78 585.72 609.03 587.82 595.47 588.91 581.07 589.48 565.86 590.05 549.89 591.17 533.21 593.35 515.91 597.06 498.07 602.65 479.81 610.37 461.23 620.33 442.45 632.49 423.59 646.66 404.75 662.53 392.75 662.33 380.31 662.53 367.38 662.52 353.93 661.74 339.95 659.69 325.44 655.96 310.42 650.26 294.93 642.42 279.01 632.43 262.73 620.42 246.16 606.63 229.37 591.44 212.44 575.29 195.45 558.68 178.47 542.14 161.58 526.18 158.65 509.01 155.67 491.84 152.91 474.66 150.66 457.49 149.14 440.32 148.51 423.15 148.82 405.98 150.05 388.81 152.08 371.64 154.69 354.47 157.63 337.29 160.61 320.12 163.33 302.95 165.51 285.78 166.94 268.61 167.48 251.44 183.32 247.54 198.87 243.74 214.07 239.72 228.9 235.17 243.31 229.84 257.3 223.53 270.87 216.12 284.03 207.55 296.83 197.87 309.3 187.18 321.51 175.64 333.54 163.47 345.48 150.93 357.41 138.27 375.58 119.7 381.7 113.64" stroke-dasharray="4 7" transform="rotate(16.16, 400, 400)" opacity="0.20"></path><path d="M385.18 126.11Q401.93 131.25 419.16 136.9 436.83 143.24 454.87 150.42 473.21 158.55 491.77 167.69 510.43 177.8 529.1 188.83 547.66 200.64 566.01 213.04 584.02 225.8 601.6 238.67 618.62 251.35 635.02 263.59 650.69 275.12 665.59 285.73 662.61 302.99 656.74 320.26 648.53 337.53 638.71 354.8 628.2 372.07 617.94 389.34 608.87 406.6 601.81 423.87 597.42 441.14 596.09 458.41 597.94 475.67 602.8 492.94 610.24 510.21 619.56 527.48 629.93 544.74 640.4 562.01 630.61 567.61 620.29 571.58 609.35 574.16 597.74 575.68 585.42 576.51 572.37 577.1 558.59 577.92 544.1 579.42 528.93 582.03 513.14 586.12 496.79 591.98 479.96 599.79 462.74 609.61 445.21 621.39 427.49 634.97 409.66 650.05 397.74 649.75 385.35 649.81 372.46 649.74 359.07 649.04 345.17 647.28 330.79 644.07 315.96 639.16 300.72 632.35 285.13 623.6 269.25 612.97 253.15 600.64 236.89 586.87 220.55 572.01 204.2 556.47 187.89 540.7 171.7 525.14 168.68 508.64 165.68 492.14 162.99 475.64 160.84 459.14 159.44 442.65 158.9 426.15 159.29 409.65 160.56 393.15 162.59 376.65 165.21 360.15 168.18 343.65 171.21 327.15 174.05 310.65 176.42 294.15 178.11 277.65 178.98 261.15 194.28 257.65 209.33 254.03 224.08 250.02 238.49 245.38 252.52 239.9 266.15 233.44 279.38 225.92 292.21 217.33 304.65 207.72 316.74 197.2 328.53 185.94 340.06 174.13 351.41 162.01 362.66 149.82 379.53 131.94 385.18 126.11" stroke-dasharray="4 10" transform="rotate(20.200000000000003, 400, 400)" opacity="0.24"></path><path d="M389.45 138.58Q405.92 143.38 422.75 148.65 439.89 154.54 457.27 161.21 474.82 168.76 492.44 177.23 510.06 186.62 527.57 196.9 544.89 207.95 561.91 219.63 578.54 231.75 594.71 244.09 610.32 256.42 625.32 268.47 639.64 280.02 653.25 290.86 649.44 307.26 643.2 323.67 635.04 340.07 625.64 356.47 615.77 372.88 606.24 389.28 597.86 405.68 591.31 422.08 587.13 438.49 585.67 454.89 587.05 471.29 591.16 487.7 597.65 504.1 606 520.5 615.5 536.9 625.37 553.31 616.22 557.54 606.66 560.46 596.62 562.32 586.02 563.43 574.83 564.15 563.02 564.87 550.56 565.99 537.46 567.89 523.74 570.92 509.42 575.36 494.54 581.43 479.17 589.27 463.36 598.92 447.19 610.3 430.72 623.27 414.05 637.58 402.14 637.17 389.76 637.12 376.89 636.98 363.55 636.34 349.76 634.82 335.55 632.08 320.95 627.86 306.02 622 290.81 614.41 275.39 605.1 259.8 594.18 244.12 581.84 228.41 568.34 212.73 554.01 197.12 539.2 181.66 524.3 178.59 508.48 175.63 492.66 173.04 476.84 171.02 461.01 169.74 445.19 169.31 429.37 169.76 413.55 171.06 397.72 173.1 381.9 175.71 366.08 178.67 350.25 181.74 334.43 184.67 318.61 187.2 302.78 189.14 286.96 190.33 271.14 205.08 267.86 219.63 264.3 233.91 260.21 247.9 255.42 261.54 249.77 274.83 243.16 287.73 235.55 300.25 226.95 312.39 217.44 324.16 207.13 335.6 196.17 346.74 184.74 357.63 173.07 368.33 161.35 384.18 144.19 389.45 138.58" stroke-dasharray="10 4" transform="rotate(24.24, 400, 400)" opacity="0.28"></path><path d="M394.28 151.06Q410.29 155.52 426.54 160.41 442.97 165.88 459.52 172.05 476.12 179.01 492.69 186.83 509.16 195.51 525.44 205.03 541.45 215.3 557.12 226.23 572.38 237.65 587.16 249.38 601.4 261.23 615.06 272.98 628.1 284.42 640.49 295.33 636.04 310.85 629.57 326.38 621.56 341.91 612.61 357.43 603.4 372.96 594.6 388.48 586.87 404.01 580.8 419.53 576.84 435.06 575.28 450.58 576.24 466.11 579.65 481.63 585.25 497.16 592.62 512.68 601.22 528.21 610.4 543.73 601.81 546.84 592.92 548.95 583.65 550.29 573.96 551.18 563.78 551.92 553.08 552.86 541.83 554.32 530.03 556.61 517.66 560.02 504.75 564.76 491.31 571 477.38 578.82 463 588.25 448.22 599.21 433.1 611.57 417.7 625.11 405.76 624.61 393.37 624.44 380.55 624.24 367.3 623.65 353.66 622.33 339.67 619.99 325.38 616.4 310.82 611.39 296.05 604.86 281.14 596.79 266.12 587.23 251.07 576.3 236.03 564.2 221.05 551.16 206.18 537.49 191.46 523.47 188.39 508.33 185.52 493.2 183.05 478.06 181.18 462.92 180.05 447.79 179.73 432.65 180.25 417.51 181.57 402.38 183.6 387.24 186.18 372.1 189.11 356.97 192.19 341.83 195.18 326.69 197.86 311.55 200.02 296.42 201.5 281.28 215.7 278.08 229.73 274.45 243.53 270.22 257.08 265.24 270.33 259.4 283.26 252.65 295.84 244.98 308.06 236.41 319.92 227.03 331.42 216.95 342.57 206.32 353.4 195.31 363.94 184.09 374.23 172.85 389.3 156.42 394.28 151.06" stroke-dasharray="5 4" transform="rotate(28.28, 400, 400)" opacity="0.32"></path><path d="M399.41 163.53Q414.77 167.67 430.27 172.19 445.84 177.24 461.42 182.92 476.95 189.32 492.37 196.5 507.61 204.47 522.6 213.23 537.29 222.72 551.61 232.86 565.52 243.53 578.96 254.58 591.89 265.86 604.28 277.18 616.11 288.35 627.36 299.19 622.43 313.83 615.86 328.47 608.09 343.1 599.65 357.74 591.09 372.38 582.99 387.02 575.9 401.66 570.3 416.3 566.55 430.94 564.92 445.58 565.5 460.22 568.27 474.86 573.03 489.49 579.46 504.13 587.3 527.21 579.13 537.16 570.55 538.19 561.64 539 552.36 539.88 542.65 541.09 532.5 542.91 521.87 545.59 510.77 549.34 499.17 554.33 487.1 560.68 474.56 568.44 461.59 577.61 448.21 588.13 434.47 599.87 420.41 612.63 408.45 612.06 396.09 611.8 383.35 611.53 370.26 610.96 356.85 609.81 343.15 607.83 329.23 604.79 315.11 600.54 300.86 594.98 286.52 588.06 272.13 579.78 257.75 570.22 243.42 559.52 229.18 547.84 215.06 535.4 201.11 522.45 198.1 508.01 195.36 493.58 193.05 479.14 191.35 464.7 190.36 450.26 190.15 435.82 190.74 421.38 192.08 406.94 194.08 392.51 196.62 378.07 199.51 363.63 202.58 349.19 205.6 334.75 208.38 320.31 210.73 305.88 212.49 291.44 226.11 288.18 239.6 284.41 252.9 279.97 265.99 274.78 278.83 268.77 291.39 261.9 303.64 254.2 315.56 245.7 327.15 236.49 338.4 226.68 349.31 216.4 359.89 205.81 370.16 195.07 380.15 184.34 394.65 168.65 399.41 163.53" stroke-dasharray="8 2" transform="rotate(32.32, 400, 400)" opacity="0.35"></path><path d="M404.58 176.01Q419.13 179.83 433.71 184 448.28 188.64 462.78 193.85 477.15 199.7 491.35 206.25 505.32 213.53 519.01 221.53 532.38 230.23 545.38 239.56 557.96 249.44 570.11 259.76 581.8 270.37 593 281.14 603.7 291.91 613.91 302.51 608.66 316.26 602.11 330.01 594.65 343.76 586.74 357.51 578.84 371.26 571.43 385.01 564.95 398.76 559.79 412.5 556.26 426.25 554.58 440 554.83 453.75 557.01 467.5 560.99 481.25 566.53 495 573.24 516.42 565.38 525.23 549.03 527.09 531.84 529.6 522.66 531.79 513.09 534.82 503.13 538.87 492.74 544.06 481.94 550.46 470.73 558.11 459.11 566.99 447.11 577.04 434.74 588.15 422.03 600.15 410.11 599.51 397.84 599.16 385.26 598.83 372.41 598.28 359.3 597.27 346 595.58 332.52 593.03 318.93 589.46 305.26 584.77 291.55 578.89 277.84 571.82 264.18 563.57 250.6 554.24 237.13 543.94 223.8 532.82 210.64 521.07 207.74 507.34 205.16 493.62 203.04 479.9 201.52 466.17 200.69 452.45 200.59 438.72 201.23 425 202.58 411.27 204.55 397.55 207.03 383.83 209.87 370.1 212.89 356.38 215.91 342.65 218.76 328.93 221.27 315.21 223.28 301.48 236.3 298.07 249.23 294.09 262.01 289.42 274.61 284.02 287.01 277.85 299.17 270.9 311.07 263.2 322.69 254.81 334 245.81 345 236.31 355.69 226.42 366.05 216.28 376.11 206.03 385.87 195.82 399.96 180.89 404.58 176.01" stroke-dasharray="5 3" transform="rotate(36.36, 400, 400)" opacity="0.39"></path><path d="M409.5 188.49Q423.09 192 436.64 195.83 450.11 200.07 463.44 204.81 476.6 210.13 489.54 216.08 502.23 222.68 514.62 229.94 526.69 237.85 538.4 246.36 549.73 255.42 560.66 264.94 571.18 274.83 581.27 284.95 590.93 295.19 600.18 305.4 594.75 318.26 588.33 331.12 581.25 343.98 573.9 356.84 566.65 369.7 559.91 382.56 554.01 395.42 549.29 408.28 545.98 421.14 544.26 434 544.23 446.86 545.89 459.72 549.15 472.58 553.83 485.44 551.82 509.75 536.63 515.2 520.62 518.77 503.8 524.33 494.85 528.63 485.57 533.95 475.93 540.35 465.94 547.84 455.59 556.4 444.89 565.96 433.85 576.43 422.49 587.68 410.68 586.99 398.6 586.55 386.28 586.17 373.76 585.63 361.06 584.73 348.23 583.29 335.3 581.16 322.3 578.18 309.28 574.26 296.27 569.33 283.3 563.36 270.4 556.34 257.6 548.33 244.94 539.38 232.42 529.61 220.07 519.15 217.33 506.16 214.94 493.17 213.03 480.17 211.7 467.18 211.03 454.19 211.04 441.2 211.74 428.21 213.09 415.21 215.02 402.22 217.42 389.23 220.17 376.24 223.13 363.25 226.13 350.25 229.02 337.26 231.64 324.27 233.85 311.28 246.26 307.64 258.59 303.41 270.82 298.51 282.91 292.91 294.84 286.62 306.57 279.62 318.09 271.98 329.36 263.74 340.38 254.99 351.12 245.83 361.57 236.36 371.74 226.69 381.6 216.95 391.18 207.26 404.99 193.11 409.5 188.49" stroke-dasharray="3 2" transform="rotate(40.400000000000006, 400, 400)" opacity="0.43"></path><path d="M413.91 200.96Q426.44 204.17 438.87 207.67 451.16 211.53 463.27 215.84 475.19 220.64 486.86 226 498.28 231.94 509.41 238.48 520.23 245.6 530.72 253.3 540.86 261.53 550.65 270.22 560.08 279.3 569.14 288.69 577.85 298.28 586.21 307.96 580.75 319.93 574.55 331.91 567.91 343.88 561.13 355.86 554.54 367.83 548.43 379.81 543.09 391.78 538.78 403.76 535.69 415.74 533.97 427.71 533.7 439.69 534.89 451.66 537.48 463.64 541.36 475.61 538.51 498.26 524.12 503.73 509.4 507.93 494.11 514.11 486.07 518.6 477.75 524 469.16 530.34 460.28 537.62 451.1 545.82 441.61 554.88 431.83 564.71 421.75 575.2 410.16 574.47 398.39 573.97 386.44 573.53 374.36 572.99 362.17 572.18 349.91 570.96 337.6 569.17 325.28 566.7 312.98 563.46 300.72 559.38 288.53 554.4 276.44 548.52 264.47 541.75 252.63 534.11 240.95 525.69 229.43 516.56 226.88 504.31 224.72 492.07 223.03 479.83 221.9 467.59 221.39 455.35 221.5 443.11 222.25 430.87 223.59 418.62 225.47 406.38 227.79 394.14 230.44 381.9 233.31 369.66 236.25 357.42 239.14 345.18 241.83 332.94 244.2 320.7 255.96 316.8 267.68 312.3 279.32 307.19 290.86 301.43 302.28 295.06 313.55 288.08 324.64 280.54 335.54 272.5 346.22 264.05 356.67 255.26 366.87 246.23 376.82 237.06 386.49 227.84 395.9 218.69 409.48 205.33 413.91 200.96" stroke-dasharray="10 2" transform="rotate(44.44, 400, 400)" opacity="0.47"></path><path d="M417.59 213.43Q428.97 216.36 440.22 219.54 451.3 223.03 462.18 226.91 472.85 231.22 483.29 236.02 493.48 241.32 503.39 247.15 513.02 253.52 522.36 260.41 531.39 267.79 540.13 275.63 548.55 283.87 556.68 292.45 564.51 301.3 572.06 310.32 566.69 321.42 560.8 332.52 554.64 343.62 548.45 354.72 542.49 365.81 536.99 376.91 532.19 388.01 528.27 399.11 525.41 410.21 523.7 421.31 523.23 432.41 524.01 443.51 526.01 454.61 529.15 465.71 525.43 486.95 511.73 492.62 498.14 497.45 484.17 504.15 476.91 508.77 469.45 514.19 461.78 520.42 453.88 527.45 445.75 535.26 437.37 543.79 428.74 552.98 419.85 562.73 408.63 561.96 397.27 561.41 385.82 560.93 374.29 560.38 362.71 559.64 351.11 558.58 339.51 557.09 327.93 555.06 316.41 552.41 304.96 549.06 293.6 544.98 282.35 540.12 271.23 534.49 260.24 528.1 249.41 520.97 238.73 513.16 236.42 501.69 234.5 490.22 233.05 478.75 232.13 467.28 231.77 455.8 231.99 444.33 232.77 432.86 234.1 421.39 235.91 409.92 238.13 398.45 240.67 386.98 243.42 375.51 246.28 364.04 249.13 352.56 251.85 341.09 254.33 329.62 265.42 325.45 276.49 320.71 287.51 315.42 298.46 309.56 309.33 303.15 320.09 296.24 330.71 288.87 341.18 281.09 351.48 272.97 361.59 264.59 371.5 256.03 381.19 247.37 390.65 238.7 399.87 230.1 413.22 217.54 417.59 213.43" stroke-dasharray="7 9" transform="rotate(48.48, 400, 400)" opacity="0.51"></path><path d="M420.33 225.91Q430.53 228.56 440.58 231.42 450.44 234.56 460.11 238.03 469.58 241.87 478.82 246.13 487.83 250.82 496.59 255.98 505.11 261.61 513.38 267.7 521.39 274.25 529.16 281.23 536.67 288.61 543.93 296.33 550.97 304.36 557.78 312.62 552.61 322.85 547.1 333.09 541.45 343.32 535.85 353.56 530.51 363.79 525.6 374.03 521.3 384.26 517.77 394.5 515.12 404.73 513.45 414.97 512.81 425.21 513.24 435.44 514.71 445.68 517.17 455.91 512.62 475.94 499.55 481.94 486.93 487.34 474.11 494.47 467.53 499.16 460.81 504.53 453.94 510.6 446.91 517.33 439.7 524.72 432.3 532.71 424.7 541.25 416.9 550.26 406.17 549.47 395.37 548.87 384.52 548.35 373.65 547.8 362.78 547.12 351.92 546.2 341.1 544.95 330.34 543.28 319.65 541.13 309.06 538.42 298.56 535.12 288.18 531.17 277.93 526.57 267.81 521.32 257.84 515.41 248.01 508.88 245.97 498.2 244.31 487.52 243.11 476.83 242.38 466.15 242.17 455.46 242.49 444.78 243.31 434.1 244.61 423.41 246.34 412.73 248.45 402.05 250.86 391.36 253.48 380.68 256.23 370 259 359.32 261.7 348.63 264.24 337.95 274.63 333.52 285.01 328.59 295.38 323.17 305.71 317.26 315.98 310.9 326.17 304.12 336.27 296.97 346.26 289.5 356.12 281.76 365.84 273.83 375.39 265.77 384.77 257.65 393.97 249.53 402.96 241.49 416.04 229.75 420.33 225.91" stroke-dasharray="4 1" transform="rotate(52.52, 400, 400)" opacity="0.54"></path><path d="M422 238.38Q431.01 240.76 439.87 243.33 448.55 246.14 457.05 249.21 465.36 252.61 473.47 256.35 481.38 260.47 489.08 264.98 496.57 269.9 503.86 275.22 510.93 280.96 517.81 287.08 524.49 293.58 530.97 300.43 537.91 315.98 533.47 333.76 528.35 343.15 523.34 352.54 518.6 361.92 514.25 371.31 510.43 380.69 507.26 390.08 504.83 399.46 503.21 408.85 502.46 418.23 502.58 427.62 503.59 437 505.45 446.39 500.15 465.33 487.65 471.73 475.9 477.62 464.08 485.05 451.95 495.29 439.53 507.25 433.13 514.19 426.58 521.62 419.9 529.51 413.05 537.78 402.94 536.99 392.82 536.36 382.69 535.8 372.57 535.25 362.49 534.6 352.46 533.79 342.49 532.74 332.59 531.38 322.78 529.64 313.07 527.48 303.47 524.84 293.98 521.69 284.61 518.01 275.38 513.78 266.27 508.99 257.3 503.66 255.55 493.78 254.17 483.9 253.2 474.03 252.68 464.15 252.61 454.27 253 444.39 253.85 434.51 255.11 424.63 256.76 414.75 258.75 404.87 261.01 394.99 263.48 385.11 266.09 375.24 268.75 365.36 271.39 355.48 273.93 345.6 283.59 340.97 293.27 335.9 302.94 330.43 312.6 324.55 322.23 318.31 331.81 311.73 341.34 304.86 350.78 297.75 360.14 290.44 369.39 282.98 378.52 275.45 387.53 267.88 396.39 260.33 405.09 252.87 417.81 241.96 422 238.38" stroke-dasharray="1 4" transform="rotate(56.56, 400, 400)" opacity="0.58"></path><path d="M422.49 250.86Q438.06 255.27 453.01 260.46 467.3 266.69 480.92 274.16 493.86 283 506.16 293.24 517.86 304.83 529.03 317.6 519.92 334.7 510.93 351.8 502.94 368.9 496.76 385.99 492.99 403.09 492.03 420.19 493.97 437.28 498.6 454.38 487.21 457.57 476.1 462.02 465.14 468.05 454.2 475.88 443.17 485.6 431.95 497.2 420.42 510.52 408.51 525.3 389.8 523.86 371.21 522.72 352.85 521.39 334.78 519.38 317.09 516.27 299.81 511.72 282.99 505.49 266.64 497.46 264.08 479.34 263.01 461.23 263.54 443.11 265.62 424.99 269.03 406.87 273.43 388.75 278.39 370.63 283.42 352.51 301.26 342.64 319.16 331.43 337.02 319.07 354.75 305.84 372.25 292.06 389.44 278.07 406.21 264.23 422.49 250.86 422.49 250.86 422.49 250.86" stroke-dasharray="2 9" transform="rotate(60.599999999999994, 400, 400)" opacity="0.62"></path><path d="M421.79 263.34Q435.19 267.23 448.07 271.75 460.4 277.13 472.21 283.52 483.5 291.03 494.31 299.73 504.68 309.6 514.67 320.57 506.5 336.03 498.61 351.48 491.67 366.94 486.25 382.4 482.79 397.86 481.58 413.31 482.73 428.77 486.13 444.22 475.4 447.94 464.96 452.85 454.73 459.16 444.61 466.97 434.52 476.33 424.35 487.19 414.04 499.43 403.52 512.83 386.52 511.4 369.74 510.25 353.22 509.01 337.02 507.32 321.18 504.85 305.73 501.32 290.68 496.53 276.05 490.32 274.07 473.86 273.4 457.4 274.1 440.94 276.12 424.48 279.29 408.02 283.34 391.56 287.94 375.1 292.71 358.64 309.01 348.78 325.41 337.88 341.83 326.14 358.2 313.77 374.46 301.04 390.53 288.22 406.33 275.57 421.79 263.34 421.79 263.34 421.79 263.34" stroke-dasharray="8 5" transform="rotate(64.64, 400, 400)" opacity="0.66"></path><path d="M419.93 275.81Q431.33 279.2 442.32 283.11 452.89 287.69 463.06 293.07 472.86 299.35 482.31 306.6 491.47 314.83 500.38 324.02 493.19 337.86 486.4 351.71 480.45 365.56 475.74 379.41 472.6 393.25 471.23 407.1 471.72 420.95 474.04 434.8 464.02 438.98 454.29 444.22 444.78 450.64 435.43 458.29 426.17 467.16 416.94 477.21 407.69 488.33 398.34 500.35 383.2 498.95 368.31 497.81 353.7 496.64 339.4 495.2 325.42 493.24 311.79 490.55 298.51 486.93 285.58 482.26 284.14 467.47 283.84 452.69 284.69 437.9 286.63 423.12 289.53 408.33 293.21 393.55 297.4 378.77 301.84 363.98 316.55 354.35 331.37 343.96 346.27 332.97 361.18 321.57 376.06 309.96 390.85 298.33 405.49 286.89 419.93 275.81 419.93 275.81 419.93 275.81" stroke-dasharray="3 1" transform="rotate(68.68, 400, 400)" opacity="0.70"></path><path d="M417.02 288.28Q426.61 291.2 435.89 294.53 444.88 298.36 453.59 302.82 462.05 307.97 470.28 313.88 478.32 320.58 486.21 328.07 480.04 340.34 474.29 352.6 469.27 364.87 465.24 377.13 462.42 389.4 460.96 401.66 460.93 413.93 462.35 426.2 453.1 430.72 444.11 436.14 435.34 442.51 426.75 449.83 418.29 458.1 409.91 467.26 401.58 477.22 393.25 487.88 380.06 486.54 367.11 485.41 354.43 484.32 342.02 483.08 329.9 481.51 318.06 479.46 306.52 476.78 295.25 473.37 294.33 460.26 294.34 447.16 295.3 434.06 297.14 420.96 299.76 407.86 303.04 394.76 306.79 381.66 310.82 368.56 323.9 359.37 337.1 349.67 350.4 339.58 363.76 329.24 377.14 318.8 390.5 308.41 410.41 293.24 417.02 288.28" stroke-dasharray="9 7" transform="rotate(72.72, 400, 400)" opacity="0.73"></path><path d="M413.2 300.76Q428.85 306.2 443.93 312.78 458.23 321.91 472.19 332.82 467.03 343.53 462.28 354.24 458.12 364.94 454.73 375.65 452.25 386.36 450.77 397.07 450.36 407.78 451.04 418.49 442.64 423.19 434.46 428.6 426.48 434.73 418.66 441.58 410.98 449.13 403.42 457.33 395.94 466.11 388.51 475.41 377.3 474.15 366.31 473.06 355.53 472.04 344.99 470.95 334.68 469.69 324.6 468.13 309.68 459.25 304.91 440.9 305.93 429.49 307.64 418.07 309.98 406.66 312.84 395.24 316.12 383.83 319.68 372.41 331.1 363.89 342.64 355.05 354.28 345.99 366.01 336.8 377.78 327.59 389.59 318.45 407.3 305.12 413.2 300.76" stroke-dasharray="0 3" transform="rotate(76.76, 400, 400)" opacity="0.77"></path><path d="M408.68 313.23Q421.61 317.68 434.2 322.94 446.37 330 458.38 338.34 454.2 347.51 450.38 356.68 447.02 365.85 444.23 375.02 442.09 384.19 440.66 393.36 436.32 409.45 425.35 421.57 418.21 427.29 411.22 433.52 404.36 440.24 397.61 447.41 383.04 458.38 366.04 460.76 348.48 458.81 331.45 456.62 319.14 449.49 315.55 434.03 316.59 424.3 318.15 414.57 320.18 404.83 322.62 395.1 325.4 385.36 328.45 375.63 338.19 367.98 348.04 360.16 357.99 352.24 368.02 344.27 378.12 336.33 388.27 328.47 403.57 316.99 408.68 313.23" stroke-dasharray="8 1" transform="rotate(80.80000000000001, 400, 400)" opacity="0.81"></path><path d="M403.69 325.71Q414.23 329.15 424.54 333.31 434.71 338.42 444.8 344.67 438.58 359.96 433.72 375.24 430.62 390.53 429.54 405.82 416.77 415.04 404.48 425.64 392.61 437.51 381.09 450.45 366.45 448.51 352.31 446.81 338.65 445.02 325.44 442.8 326.27 426.68 328.65 410.55 332.38 394.42 337.16 378.29 353.37 365.03 369.9 351.66 386.7 338.45 403.69 325.71 403.69 325.71 403.69 325.71" stroke-dasharray="5 10" transform="rotate(84.84, 400, 400)" opacity="0.85"></path><path d="M398.52 338.18Q406.83 340.81 415.07 343.88 425.08 355.8 423.21 376.33 420.64 388.58 419.31 400.83 408.72 408.95 398.46 417.91 388.5 427.62 378.8 437.98 367.64 436.31 356.8 434.84 341.67 426.19 339.16 406.16 342.14 393.34 345.85 380.52 358.68 369.73 371.76 358.98 391.78 343.3 398.52 338.18" stroke-dasharray="3 5" transform="rotate(88.88, 400, 400)" opacity="0.89"></path><path d="M393.42 350.66Q410.61 361.9 412.71 378.23 410.72 387.45 409.39 396.67 401.18 403.27 393.15 410.3 377.5 420.95 361.92 422.96 351.13 416.46 349.66 401.56 351.89 392.01 354.56 382.46 364.05 374.33 373.7 366.27 388.46 354.51 393.42 350.66" stroke-dasharray="9 9" transform="rotate(92.92, 400, 400)" opacity="0.92"></path><path d="M388.67 363.13Q399.68 373.25 399.75 393.23 388.54 402.82 377.66 413.03 363.92 404.06 363.32 384.27 382.26 368.33 388.67 363.13" stroke-dasharray="7 1" transform="rotate(96.96, 400, 400)" opacity="0.96"></path></g></svg>